<svg width="64" height="64" viewBox="0 0 64 64" fill="none" xmlns="http://www.w3.org/2000/svg">
<rect width="64" height="64" rx="10" fill="white"/>
<g clip-path="url(#clip0_1_12265)">
<path d="M54.9628 32.7273C54.9628 45.4044 44.6862 55.681 32.0091 55.681C19.3324 55.681 9.05542 45.4044 9.05542 32.7273C9.05542 20.0502 19.3324 9.77358 32.0091 9.77358C44.6862 9.77358 54.9628 20.0502 54.9628 32.7273Z" fill="url(#paint0_radial_1_12265)"/>
<path d="M54.9629 32.7273C54.9629 45.404 44.6863 55.681 32.0095 55.681C29.0615 55.681 26.2439 55.1255 23.654 54.1129C22.3602 53.6068 21.1228 52.9861 19.9557 52.2646C20.8397 52.0852 21.7688 51.8358 22.7407 51.5128C28.1247 49.7268 34.0958 46.0035 39.5564 41.0319C45.0169 36.0587 49.2811 30.4594 51.5615 25.2661C51.9768 24.3213 52.3155 23.408 52.5774 22.5386C52.5788 22.5364 52.5788 22.5331 52.5799 22.5305C53.1893 23.7592 53.6928 25.0493 54.0766 26.3904C54.6534 28.4034 54.9629 30.5293 54.9629 32.7273Z" fill="url(#paint1_linear_1_12265)"/>
<path d="M54.9632 32.7269C54.9632 34.1833 54.8277 35.6075 54.5677 36.9885C54.2118 38.8902 53.6196 40.7089 52.8242 42.4143C51.5538 45.1407 49.7623 47.5768 47.5775 49.5931L37.6217 39.6373C37.2866 39.444 37.0288 39.1338 36.9043 38.7613L31.8206 33.6567C30.6919 32.6943 29.9763 31.2632 29.9763 29.6639V25.8059C29.9763 24.0701 30.6219 22.4851 31.688 21.2792C32.8844 19.9213 34.6111 19.0431 36.5458 18.9666C36.6366 18.9633 36.7296 18.9611 36.8212 18.9611H41.0608C41.9412 18.9611 42.6545 18.2477 42.6545 17.3673V17.0777C42.6545 16.1973 43.3686 15.4839 44.2494 15.4839H47.1593C47.2783 15.589 47.3962 15.6948 47.513 15.8018C47.6247 15.9047 47.7361 16.0083 47.8452 16.112C47.8507 16.1163 47.8551 16.1207 47.8595 16.1262C48.0887 16.346 48.3128 16.5697 48.5337 16.7982L48.5564 16.8209C52.525 20.9459 54.9632 26.5508 54.9632 32.7269Z" fill="url(#paint2_linear_1_12265)"/>
<path d="M54.5677 36.9885C54.2118 38.8902 53.6196 40.7089 52.8242 42.4143L31.6884 21.2792L29.0172 18.608C28.3694 18.1419 27.9479 17.3816 27.9479 16.5228C27.9479 15.1038 29.0981 13.9535 30.5172 13.9535C31.3756 13.9535 32.1362 14.3754 32.6024 15.0232L54.5677 36.9885Z" fill="url(#paint3_linear_1_12265)"/>
<path d="M54.9632 32.7269C54.9632 35.2131 54.5677 37.6078 53.8357 39.8505H38.4149C37.5345 39.8505 36.8212 39.136 36.8212 38.2556V36.5077C36.8212 36.0675 36.6421 35.6687 36.3535 35.3805C36.0653 35.0919 35.6665 34.9139 35.2263 34.9139C32.327 34.9139 29.9763 32.5632 29.9763 29.6639V25.8059C29.9763 22.0252 33.0404 18.9611 36.8212 18.9611H41.0604C41.9412 18.9611 42.6542 18.2477 42.6542 17.3673V17.0777C42.6542 16.1973 43.3686 15.4839 44.249 15.4839H47.1593C51.9438 19.6898 54.9632 25.8561 54.9632 32.7269Z" fill="url(#paint4_linear_1_12265)"/>
<path d="M19.5979 35.6621C19.5979 40.0043 16.124 43.5349 11.8027 43.6246C10.0504 40.3822 9.05542 36.6717 9.05542 32.7269C9.05542 31.0973 9.22498 29.509 9.54797 27.9753V27.9742C10.2123 27.7941 10.9114 27.6978 11.6335 27.6978C16.0325 27.6978 19.5979 31.2632 19.5979 35.6621Z" fill="url(#paint5_linear_1_12265)"/>
<path d="M32.0091 55.681C36.5699 55.681 40.8194 54.3509 44.3922 52.0577C42.9372 50.4856 40.8564 49.5012 38.5453 49.5012C38.4665 49.5012 38.3882 49.5023 38.3102 49.5045C36.5754 49.555 34.8546 49.1112 33.4245 48.1275C32.1432 47.2457 30.5901 46.7294 28.9165 46.7294C25.1163 46.7294 21.9406 49.391 21.1455 52.9516C24.3799 54.6926 28.079 55.681 32.0091 55.681Z" fill="url(#paint6_linear_1_12265)"/>
<path d="M32.0091 55.681C36.5699 55.681 40.8194 54.3509 44.3922 52.0577C42.9372 50.4856 40.8564 49.5012 38.5453 49.5012C38.4665 49.5012 38.3882 49.5023 38.3102 49.5045C36.5754 49.555 34.8546 49.1112 33.4245 48.1275C32.1432 47.2457 30.5901 46.7294 28.9165 46.7294C25.1163 46.7294 21.9406 49.391 21.1455 52.9516C24.3799 54.6926 28.079 55.681 32.0091 55.681Z" fill="url(#paint7_linear_1_12265)"/>
<path d="M38.5453 49.5012C38.4669 49.5012 38.3885 49.5027 38.3102 49.5049C36.5754 49.555 34.8546 49.1112 33.4249 48.1275C32.8558 47.7361 32.2329 47.4171 31.5701 47.1827C28.5708 49.0958 25.5745 50.5727 22.7411 51.5128C22.3046 51.6578 21.8776 51.7871 21.4586 51.9028C21.3319 52.2419 21.2261 52.5913 21.1459 52.9505C21.162 52.9593 21.1777 52.9681 21.1938 52.9765C21.5692 53.1776 21.9508 53.3684 22.3383 53.5486C22.3752 53.5658 22.4122 53.5826 22.4496 53.5998C22.6136 53.6749 22.7788 53.7485 22.9451 53.8199C22.981 53.8357 23.0172 53.8514 23.0531 53.8668C23.4501 54.0353 23.8529 54.1927 24.2609 54.3388C24.3022 54.3539 24.3436 54.3681 24.385 54.3828C24.5513 54.441 24.7179 54.4978 24.8856 54.5523C24.9299 54.567 24.9742 54.5816 25.0186 54.5959C25.4269 54.7263 25.8403 54.8457 26.2585 54.9533C26.3105 54.9669 26.3633 54.9797 26.4156 54.9929C26.576 55.0332 26.7372 55.0716 26.899 55.1083C26.9551 55.1211 27.0107 55.1343 27.0671 55.1463C27.4831 55.2379 27.9036 55.3177 28.3276 55.3862C28.3921 55.3968 28.4569 55.4063 28.5221 55.4162C28.6748 55.4397 28.8282 55.4613 28.982 55.4814C29.0498 55.4906 29.1175 55.4997 29.186 55.5082C29.3838 55.5323 29.5826 55.5547 29.7822 55.5737C29.8108 55.5766 29.8393 55.5792 29.8679 55.5818C30.0657 55.6004 30.2645 55.6155 30.4637 55.6286C30.5377 55.6338 30.6124 55.6378 30.6868 55.6418C30.8351 55.6506 30.9841 55.6576 31.1332 55.6631C31.209 55.666 31.2848 55.6689 31.361 55.6711C31.555 55.6766 31.7491 55.6795 31.9443 55.6803C31.9663 55.6803 31.9879 55.681 32.0095 55.681C32.1923 55.681 32.3746 55.6784 32.5563 55.674C32.5925 55.6733 32.6288 55.6722 32.6647 55.6711C32.8225 55.6667 32.9796 55.6609 33.1367 55.6532C33.1623 55.6521 33.1883 55.651 33.214 55.6495C33.3964 55.6404 33.5784 55.6286 33.76 55.6151C33.7801 55.6136 33.8003 55.6118 33.8204 55.61C33.9794 55.5975 34.1379 55.5836 34.2958 55.5678C34.3331 55.5642 34.3705 55.5605 34.4075 55.5565C34.7623 55.5199 35.115 55.4748 35.4651 55.4221C35.4999 55.4166 35.5347 55.4111 35.5691 55.406C35.7167 55.3829 35.8639 55.3584 36.0104 55.3327C36.0415 55.3272 36.073 55.3221 36.1041 55.3163C36.2784 55.2851 36.4524 55.2518 36.6256 55.2163C36.6402 55.2134 36.6545 55.2101 36.6692 55.2071C36.8252 55.1753 36.9801 55.1412 37.1346 55.1061C37.1731 55.0973 37.2115 55.0881 37.25 55.0793C37.406 55.0427 37.5616 55.005 37.7162 54.9654C37.7286 54.9625 37.7414 54.9592 37.7539 54.9563C37.9231 54.9127 38.0912 54.8669 38.2585 54.8197C38.2919 54.8102 38.3252 54.8003 38.3585 54.7907C38.4955 54.7512 38.6321 54.7105 38.7683 54.6688C38.8034 54.6578 38.839 54.6472 38.8745 54.6362C39.0393 54.5846 39.2037 54.5315 39.367 54.4762C39.3747 54.4736 39.3821 54.471 39.3898 54.4685C39.5428 54.4165 39.6948 54.3626 39.8461 54.3077C39.8852 54.2934 39.9248 54.2788 39.964 54.2645C40.1009 54.214 40.2372 54.162 40.373 54.1089C40.3965 54.0997 40.4199 54.0909 40.4433 54.0818C40.6012 54.0191 40.7579 53.9551 40.9139 53.8895C40.9461 53.876 40.978 53.862 41.0099 53.8485C41.1366 53.7943 41.2626 53.7394 41.3882 53.683C41.4263 53.6661 41.464 53.6489 41.5021 53.6317C41.8082 53.4925 42.1103 53.3468 42.4088 53.1948C42.4476 53.1754 42.4857 53.1553 42.5241 53.1355C42.6457 53.0729 42.7666 53.0091 42.8871 52.9443C42.9167 52.9282 42.9464 52.9128 42.9757 52.8967C43.1218 52.8169 43.2672 52.7359 43.4115 52.6532C43.4397 52.6367 43.4679 52.6202 43.4961 52.6037C43.614 52.5353 43.7315 52.466 43.8484 52.3957C43.8861 52.3727 43.9242 52.35 43.9619 52.3269C44.0985 52.2434 44.2344 52.1588 44.3691 52.0727C44.3739 52.0694 44.3786 52.0665 44.3834 52.0636C44.3863 52.0614 44.3893 52.0596 44.3922 52.0577C42.9372 50.4856 40.8564 49.5012 38.5453 49.5012Z" fill="url(#paint8_linear_1_12265)"/>
<path d="M33.0858 16.5225C33.0858 17.9412 31.9355 19.0914 30.5168 19.0914C29.0978 19.0914 27.9475 17.9412 27.9475 16.5225C27.9475 15.1034 29.0978 13.9531 30.5168 13.9531C31.9355 13.9531 33.0858 15.1034 33.0858 16.5225Z" fill="url(#paint9_linear_1_12265)"/>
<path d="M46.3291 22.5137C45.9523 22.1076 45.4161 21.8523 44.8185 21.8523C43.6792 21.8523 42.7556 22.7759 42.7556 23.9152C42.7556 24.5125 43.0109 25.049 43.4166 25.4258L48.86 30.8691C49.2368 31.2749 49.7733 31.5301 50.3706 31.5301C51.5099 31.5301 52.4335 30.6066 52.4335 29.4673C52.4335 28.87 52.1782 28.3335 51.7725 27.9567L46.3291 22.5137Z" fill="url(#paint10_linear_1_12265)"/>
<path d="M46.8813 23.9152C46.8813 25.0544 45.9578 25.978 44.8185 25.978C43.6792 25.978 42.7556 25.0544 42.7556 23.9152C42.7556 22.7759 43.6792 21.8523 44.8185 21.8523C45.9578 21.8523 46.8813 22.7759 46.8813 23.9152Z" fill="url(#paint11_radial_1_12265)"/>
<path d="M36.5802 28.2441C36.2034 27.838 35.6672 27.5828 35.0696 27.5828C33.9303 27.5828 33.0067 28.5063 33.0067 29.6456C33.0067 30.2429 33.2623 30.7794 33.6681 31.1562L39.1111 36.5996C39.4879 37.0054 40.0244 37.2606 40.6217 37.2606C41.761 37.2606 42.6849 36.337 42.6849 35.1977C42.6849 34.6005 42.4293 34.064 42.0236 33.6871L36.5802 28.2441Z" fill="url(#paint12_linear_1_12265)"/>
<path d="M37.1328 29.6456C37.1328 30.7849 36.2089 31.7085 35.0696 31.7085C33.9303 31.7085 33.0067 30.7849 33.0067 29.6456C33.0067 28.5063 33.9303 27.5828 35.0696 27.5828C36.2089 27.5828 37.1328 28.5063 37.1328 29.6456Z" fill="url(#paint13_radial_1_12265)"/>
<path d="M14.4167 30.9263C14.0399 30.5201 13.5034 30.2649 12.9061 30.2649C11.7668 30.2649 10.8433 31.1885 10.8433 32.3278C10.8433 32.925 11.0985 33.4615 11.5043 33.8384L16.9476 39.2817C17.3245 39.6875 17.8606 39.9427 18.4582 39.9427C19.5975 39.9427 20.5211 39.0192 20.5211 37.8799C20.5211 37.2826 20.2659 36.7461 19.8597 36.3693L14.4167 30.9263Z" fill="url(#paint14_linear_1_12265)"/>
<path d="M14.969 32.3278C14.969 33.467 14.0454 34.3906 12.9061 34.3906C11.7668 34.3906 10.8433 33.467 10.8433 32.3278C10.8433 31.1885 11.7668 30.2649 12.9061 30.2649C14.0454 30.2649 14.969 31.1885 14.969 32.3278Z" fill="url(#paint15_radial_1_12265)"/>
<path d="M54.9625 32.676C54.9621 32.509 54.9596 32.3424 54.9556 32.1761C54.9541 32.1197 54.9526 32.0634 54.9512 32.0073C54.9457 31.8315 54.9387 31.6561 54.9296 31.4814C54.927 31.4375 54.9241 31.3932 54.9211 31.3492C54.9127 31.2057 54.9028 31.0629 54.8918 30.92C54.8874 30.8629 54.883 30.8058 54.8783 30.749C54.864 30.5806 54.8479 30.4125 54.8296 30.2448C54.8233 30.1869 54.8164 30.129 54.8098 30.0712C54.7948 29.9408 54.7787 29.8112 54.7615 29.6819C54.7541 29.6251 54.7468 29.568 54.7391 29.5116C54.7164 29.3501 54.6919 29.189 54.6659 29.0282C54.6549 28.9619 54.6435 28.8956 54.6322 28.8293C54.6109 28.7048 54.5886 28.5807 54.5652 28.4569C54.5516 28.3848 54.5381 28.3123 54.5238 28.2405C54.4967 28.1035 54.4681 27.9673 54.4388 27.8314C54.4234 27.7611 54.4077 27.6908 54.392 27.6209C54.3619 27.4883 54.3308 27.3564 54.2982 27.225C54.2788 27.1462 54.259 27.0679 54.2389 26.9895C54.2096 26.8767 54.1799 26.7643 54.1492 26.6522C54.1301 26.5826 54.1111 26.5131 54.0917 26.4439C54.0671 26.3578 54.0411 26.2721 54.0159 26.1864C53.9873 26.0908 53.9598 25.9945 53.9302 25.8993C53.8771 25.7286 53.8221 25.5587 53.7654 25.3903C53.7412 25.3189 53.7156 25.2485 53.691 25.1779C53.6533 25.0691 53.6152 24.9603 53.5757 24.8523C53.5475 24.7747 53.5182 24.6978 53.4889 24.6205C53.4508 24.5198 53.4127 24.4194 53.3732 24.3195C53.3424 24.2415 53.3113 24.1638 53.2794 24.0862C53.2391 23.9869 53.1981 23.8881 53.1567 23.7896C53.1249 23.7145 53.0926 23.639 53.06 23.5643C53.0146 23.46 52.9681 23.3563 52.9209 23.2527C52.8905 23.1857 52.8605 23.1187 52.8297 23.0516C52.7674 22.9187 52.7041 22.7861 52.6396 22.6543C52.6224 22.6191 52.6059 22.584 52.5887 22.5488C52.5858 22.543 52.5825 22.5375 52.5799 22.5316C52.5788 22.5338 52.5788 22.5368 52.5777 22.5389C52.3159 23.4083 51.9772 24.3217 51.5615 25.2665C49.4602 30.0521 45.6728 35.1827 40.818 39.8505H53.8342C53.8511 39.7988 53.8683 39.7472 53.8848 39.6955C53.9075 39.6245 53.9302 39.5535 53.9521 39.4824C53.9895 39.3608 54.0254 39.2389 54.0609 39.1166C54.0763 39.0631 54.092 39.0096 54.107 38.9562C54.1477 38.8111 54.1872 38.6654 54.2253 38.5189C54.2407 38.4603 54.255 38.401 54.27 38.342C54.2978 38.2311 54.3253 38.1194 54.3517 38.0077C54.366 37.9469 54.3802 37.8857 54.3938 37.8249C54.4213 37.7037 54.4476 37.5825 54.4733 37.4609C54.4831 37.4126 54.4938 37.3646 54.5036 37.3159C54.5381 37.146 54.571 36.9753 54.6018 36.8036C54.6062 36.7787 54.6102 36.7534 54.6146 36.7285C54.6406 36.5802 54.6655 36.4315 54.6886 36.2825C54.6966 36.2316 54.704 36.1803 54.7117 36.129C54.7307 36.0001 54.749 35.8712 54.7659 35.7416C54.7724 35.6914 54.779 35.6412 54.7853 35.5911C54.8047 35.4358 54.8226 35.2801 54.8387 35.1245C54.8409 35.104 54.8435 35.0839 54.8453 35.0633C54.8636 34.8821 54.8797 34.7001 54.894 34.5173C54.8962 34.4855 54.8984 34.4529 54.9006 34.4207C54.9116 34.2727 54.9208 34.1244 54.9288 33.9757C54.9314 33.9274 54.9339 33.8794 54.9361 33.8311C54.9427 33.6886 54.9482 33.5461 54.9523 33.4033C54.9537 33.3623 54.9552 33.3213 54.9559 33.2803C54.9603 33.0964 54.9629 32.9122 54.9629 32.7277C54.9629 32.7101 54.9625 32.6932 54.9625 32.676Z" fill="url(#paint16_linear_1_12265)"/>
<path d="M53.9814 12.7135C53.583 12.2755 53.1348 11.8925 52.6396 11.5636L52.8352 11.0491C53.375 9.63076 52.2331 8.14028 50.7229 8.29189L46.3899 8.72768C44.7159 8.89577 43.9528 10.903 45.0917 12.1411L48.04 15.3458C49.0673 16.4632 50.9111 16.1083 51.4506 14.6896L51.619 14.2472C51.7336 14.349 51.8424 14.4556 51.9449 14.568C53.4274 16.1973 53.6321 19.0263 52.577 22.5382C52.3155 23.4087 51.9772 24.3209 51.5615 25.2665C49.2804 30.4597 45.017 36.0591 39.5564 41.0315C34.0958 46.0043 28.1244 49.7264 22.7411 51.5132C21.7688 51.8354 20.8383 52.0852 19.955 52.2646C16.3463 52.9949 13.5401 52.529 12.0536 50.8968C10.5646 49.2621 10.376 46.4089 11.4325 42.8973C11.3915 42.8171 11.352 42.7344 11.3128 42.6531C10.7444 41.4684 10.2874 40.2588 9.93692 39.0371C8.84415 41.5028 8.20951 43.8004 8.04252 45.8852C7.8162 48.7106 8.49918 51.0851 10.0157 52.7517C12.6711 55.6675 17.4988 56.1556 23.6083 54.1286C23.6266 54.1224 23.6449 54.1158 23.6632 54.1096C25.0585 53.6434 26.4874 53.0597 27.934 52.3657C32.4252 50.212 37.0841 47.0088 41.4124 43.0687C47.1432 37.8477 51.6417 31.9268 54.0759 26.3948C54.0788 26.3882 54.081 26.382 54.0843 26.3757C56.6738 20.4808 56.6368 15.6293 53.9814 12.7135Z" fill="url(#paint17_linear_1_12265)"/>
</g>
<defs>
<radialGradient id="paint0_radial_1_12265" cx="0" cy="0" r="1" gradientUnits="userSpaceOnUse" gradientTransform="translate(22.2216 15.4178) scale(42.196)">
<stop stop-color="#FFFCF8"/>
<stop offset="0.2239" stop-color="#FBF9F7"/>
<stop offset="0.4254" stop-color="#F0F1F3"/>
<stop offset="0.6183" stop-color="#DEE3ED"/>
<stop offset="0.8059" stop-color="#C4D0E4"/>
<stop offset="0.9882" stop-color="#A3B7D9"/>
<stop offset="1" stop-color="#A1B5D8"/>
</radialGradient>
<linearGradient id="paint1_linear_1_12265" x1="43.7324" y1="44.8625" x2="39.8552" y2="40.9853" gradientUnits="userSpaceOnUse">
<stop stop-color="#A1B5D8" stop-opacity="0"/>
<stop offset="0.2632" stop-color="#8EA0BA" stop-opacity="0.262745"/>
<stop offset="0.5306" stop-color="#808FA3" stop-opacity="0.529412"/>
<stop offset="0.7822" stop-color="#778595" stop-opacity="0.780392"/>
<stop offset="1" stop-color="#748290"/>
</linearGradient>
<linearGradient id="paint2_linear_1_12265" x1="47.5496" y1="45.4441" x2="39.8699" y2="21.7737" gradientUnits="userSpaceOnUse">
<stop stop-color="#A1B5D8" stop-opacity="0"/>
<stop offset="0.2632" stop-color="#8EA0BA" stop-opacity="0.262745"/>
<stop offset="0.5306" stop-color="#808FA3" stop-opacity="0.529412"/>
<stop offset="0.7822" stop-color="#778595" stop-opacity="0.780392"/>
<stop offset="1" stop-color="#748290"/>
</linearGradient>
<linearGradient id="paint3_linear_1_12265" x1="35.5257" y1="21.5315" x2="28.2668" y2="14.2726" gradientUnits="userSpaceOnUse">
<stop stop-color="#A1B5D8" stop-opacity="0"/>
<stop offset="0.2632" stop-color="#8EA0BA" stop-opacity="0.262745"/>
<stop offset="0.5306" stop-color="#808FA3" stop-opacity="0.529412"/>
<stop offset="0.7822" stop-color="#778595" stop-opacity="0.780392"/>
<stop offset="1" stop-color="#748290"/>
</linearGradient>
<linearGradient id="paint4_linear_1_12265" x1="42.9842" y1="27.8275" x2="52.8859" y2="32.1782" gradientUnits="userSpaceOnUse">
<stop stop-color="#00E7B2"/>
<stop offset="0.2459" stop-color="#05E5B1"/>
<stop offset="0.5301" stop-color="#13DDAC"/>
<stop offset="0.8322" stop-color="#2AD1A5"/>
<stop offset="1" stop-color="#3AC9A0"/>
</linearGradient>
<linearGradient id="paint5_linear_1_12265" x1="9.66009" y1="31.9534" x2="21.2984" y2="43.5917" gradientUnits="userSpaceOnUse">
<stop stop-color="#00E7B2"/>
<stop offset="0.2459" stop-color="#05E5B1"/>
<stop offset="0.5301" stop-color="#13DDAC"/>
<stop offset="0.8322" stop-color="#2AD1A5"/>
<stop offset="1" stop-color="#3AC9A0"/>
</linearGradient>
<linearGradient id="paint6_linear_1_12265" x1="31.09" y1="48.4755" x2="33.3404" y2="53.8764" gradientUnits="userSpaceOnUse">
<stop stop-color="#00E7B2"/>
<stop offset="0.2459" stop-color="#05E5B1"/>
<stop offset="0.5301" stop-color="#13DDAC"/>
<stop offset="0.8322" stop-color="#2AD1A5"/>
<stop offset="1" stop-color="#3AC9A0"/>
</linearGradient>
<linearGradient id="paint7_linear_1_12265" x1="31.09" y1="48.4755" x2="33.3404" y2="53.8764" gradientUnits="userSpaceOnUse">
<stop stop-color="#00E7B2"/>
<stop offset="0.2459" stop-color="#05E5B1"/>
<stop offset="0.5301" stop-color="#13DDAC"/>
<stop offset="0.8322" stop-color="#2AD1A5"/>
<stop offset="1" stop-color="#3AC9A0"/>
</linearGradient>
<linearGradient id="paint8_linear_1_12265" x1="32.5488" y1="52.217" x2="30.8178" y2="49.9591" gradientUnits="userSpaceOnUse">
<stop stop-color="#3AC9A0" stop-opacity="0"/>
<stop offset="0.0351" stop-color="#38C69D" stop-opacity="0.035294"/>
<stop offset="0.4167" stop-color="#23AA82" stop-opacity="0.415686"/>
<stop offset="0.7511" stop-color="#169971" stop-opacity="0.752941"/>
<stop offset="1" stop-color="#11936B"/>
</linearGradient>
<linearGradient id="paint9_linear_1_12265" x1="29.4068" y1="15.4124" x2="33.4268" y2="19.4324" gradientUnits="userSpaceOnUse">
<stop stop-color="#00E7B2"/>
<stop offset="0.2459" stop-color="#05E5B1"/>
<stop offset="0.5301" stop-color="#13DDAC"/>
<stop offset="0.8322" stop-color="#2AD1A5"/>
<stop offset="1" stop-color="#3AC9A0"/>
</linearGradient>
<linearGradient id="paint10_linear_1_12265" x1="48.5624" y1="27.6591" x2="40.9772" y2="20.0739" gradientUnits="userSpaceOnUse">
<stop stop-color="#3AC9A0" stop-opacity="0"/>
<stop offset="0.0351" stop-color="#38C69D" stop-opacity="0.035294"/>
<stop offset="0.4167" stop-color="#23AA82" stop-opacity="0.415686"/>
<stop offset="0.7511" stop-color="#169971" stop-opacity="0.752941"/>
<stop offset="1" stop-color="#11936B"/>
</linearGradient>
<radialGradient id="paint11_radial_1_12265" cx="0" cy="0" r="1" gradientUnits="userSpaceOnUse" gradientTransform="translate(42.8923 21.0653) scale(4.62805)">
<stop stop-color="#FF4974"/>
<stop offset="0.3262" stop-color="#FE4672"/>
<stop offset="0.5324" stop-color="#FB3E6C"/>
<stop offset="0.7054" stop-color="#F52F60"/>
<stop offset="0.8591" stop-color="#EE1A51"/>
<stop offset="1" stop-color="#E4003D"/>
</radialGradient>
<linearGradient id="paint12_linear_1_12265" x1="38.8136" y1="33.3895" x2="31.2284" y2="25.8043" gradientUnits="userSpaceOnUse">
<stop stop-color="#3AC9A0" stop-opacity="0"/>
<stop offset="0.0351" stop-color="#38C69D" stop-opacity="0.035294"/>
<stop offset="0.4167" stop-color="#23AA82" stop-opacity="0.415686"/>
<stop offset="0.7511" stop-color="#169971" stop-opacity="0.752941"/>
<stop offset="1" stop-color="#11936B"/>
</linearGradient>
<radialGradient id="paint13_radial_1_12265" cx="0" cy="0" r="1" gradientUnits="userSpaceOnUse" gradientTransform="translate(33.1435 26.7957) scale(4.62805)">
<stop stop-color="#FF4974"/>
<stop offset="0.3262" stop-color="#FE4672"/>
<stop offset="0.5324" stop-color="#FB3E6C"/>
<stop offset="0.7054" stop-color="#F52F60"/>
<stop offset="0.8591" stop-color="#EE1A51"/>
<stop offset="1" stop-color="#E4003D"/>
</radialGradient>
<linearGradient id="paint14_linear_1_12265" x1="16.65" y1="36.0717" x2="9.06481" y2="28.4865" gradientUnits="userSpaceOnUse">
<stop stop-color="#3AC9A0" stop-opacity="0"/>
<stop offset="0.0351" stop-color="#38C69D" stop-opacity="0.035294"/>
<stop offset="0.4167" stop-color="#23AA82" stop-opacity="0.415686"/>
<stop offset="0.7511" stop-color="#169971" stop-opacity="0.752941"/>
<stop offset="1" stop-color="#11936B"/>
</linearGradient>
<radialGradient id="paint15_radial_1_12265" cx="0" cy="0" r="1" gradientUnits="userSpaceOnUse" gradientTransform="translate(10.9799 29.478) scale(4.62805)">
<stop stop-color="#FF4974"/>
<stop offset="0.3262" stop-color="#FE4672"/>
<stop offset="0.5324" stop-color="#FB3E6C"/>
<stop offset="0.7054" stop-color="#F52F60"/>
<stop offset="0.8591" stop-color="#EE1A51"/>
<stop offset="1" stop-color="#E4003D"/>
</radialGradient>
<linearGradient id="paint16_linear_1_12265" x1="51.7371" y1="35.0537" x2="49.4792" y2="33.3227" gradientUnits="userSpaceOnUse">
<stop stop-color="#3AC9A0" stop-opacity="0"/>
<stop offset="0.0351" stop-color="#38C69D" stop-opacity="0.035294"/>
<stop offset="0.4167" stop-color="#23AA82" stop-opacity="0.415686"/>
<stop offset="0.7511" stop-color="#169971" stop-opacity="0.752941"/>
<stop offset="1" stop-color="#11936B"/>
</linearGradient>
<linearGradient id="paint17_linear_1_12265" x1="25.5729" y1="17.3025" x2="38.3922" y2="48.0686" gradientUnits="userSpaceOnUse">
<stop stop-color="#3B395F"/>
<stop offset="0.0633" stop-color="#37355A"/>
<stop offset="0.4033" stop-color="#232543"/>
<stop offset="0.7232" stop-color="#171B35"/>
<stop offset="1" stop-color="#131830"/>
</linearGradient>
<clipPath id="clip0_1_12265">
<rect width="48" height="48" fill="white" transform="translate(8 8)"/>
</clipPath>
</defs>
</svg>
