<svg width="64" height="64" viewBox="0 0 64 64" fill="none" xmlns="http://www.w3.org/2000/svg">
<rect width="64" height="64" rx="10" fill="white"/>
<path d="M55.354 20.6672C55.046 20.3157 54.6414 20.0447 54.1719 19.8997L44.9115 17.0234C44.4094 16.8671 43.8718 16.8671 43.3698 17.0234L34.109 19.8997C33.6399 20.0447 33.2349 20.3157 32.9272 20.6672C32.5204 21.1305 32.2812 21.7347 32.2812 22.3807V33.0708C32.2812 34.2086 33.0225 35.2146 34.109 35.5522L43.3698 38.4281C43.6213 38.5057 43.881 38.5457 44.1406 38.5457C44.4003 38.5457 44.6599 38.5057 44.9115 38.4281L54.1719 35.5522C55.2588 35.2146 56 34.2086 56 33.0708V22.3807C56 21.7347 55.7609 21.1305 55.354 20.6672Z" fill="url(#paint0_linear_1_12034)"/>
<path d="M55.354 20.6672L44.1406 24.1506L32.9269 20.6672C33.2349 20.3157 33.6395 20.0447 34.109 19.8997L43.3698 17.0234C43.8715 16.8671 44.4094 16.8671 44.9115 17.0234L54.1719 19.8997C54.6414 20.0447 55.046 20.3157 55.354 20.6672Z" fill="url(#paint1_linear_1_12034)"/>
<path d="M44.1406 24.1506V38.5457C43.881 38.5457 43.6213 38.5057 43.3698 38.4281L34.109 35.5519C33.0221 35.2146 32.2809 34.2086 32.2809 33.0708V22.3807C32.2809 21.7347 32.52 21.1305 32.9269 20.6672L44.1406 24.1506Z" fill="url(#paint2_linear_1_12034)"/>
<path d="M56 22.3807V33.0708C56 34.2086 55.2588 35.2146 54.1719 35.5522L44.9115 38.4281C44.6599 38.5057 44.4003 38.5457 44.1406 38.5457V24.1506L55.354 20.6672C55.7609 21.1305 56 21.7347 56 22.3807Z" fill="url(#paint3_linear_1_12034)"/>
<path d="M40.2449 27.6249C39.7307 26.9891 38.8463 26.7284 38.0439 27.0411L37.632 27.2015C37.5426 27.1067 37.4507 27.0151 37.3562 26.9265C36.0668 25.5518 34.1969 24.8061 32.2809 24.9607V33.0708C32.2809 34.2086 33.0221 35.2146 34.109 35.5522L43.3698 38.4281C43.6213 38.5057 43.881 38.5456 44.1406 38.5456C44.4003 38.5456 44.6599 38.5057 44.9115 38.4281L49.5939 36.9739L40.2449 27.6249Z" fill="url(#paint4_linear_1_12034)"/>
<path d="M28.9601 38.717C26.3259 38.717 23.8694 37.0409 23.0059 34.4049C22.4851 32.8159 22.6144 31.1189 23.3702 29.6269C24.1257 28.135 25.417 27.0268 27.0063 26.5061L30.8369 25.2511C34.1171 24.1763 37.6609 25.9711 38.7357 29.2519C39.2565 30.8409 39.1272 32.538 38.3713 34.0299C37.6158 35.5218 36.3246 36.63 34.7352 37.1508L30.9047 38.4058C30.2598 38.6167 29.6042 38.717 28.9601 38.717ZM32.7844 28.7993C32.5369 28.7993 32.286 28.8378 32.0385 28.9187L28.2079 30.1737C27.5981 30.3737 27.103 30.7985 26.813 31.3708C26.5233 31.9429 26.4735 32.594 26.6735 33.2034C27.0854 34.4617 28.4445 35.1501 29.7031 34.7378L33.5337 33.4828C34.1431 33.2832 34.6385 32.858 34.9282 32.286C35.2179 31.7136 35.2677 31.0629 35.0681 30.4535C34.7371 29.4424 33.7944 28.7993 32.7844 28.7993Z" fill="url(#paint5_radial_1_12034)"/>
<path d="M28.9601 37.8594C26.6152 37.8594 24.5502 36.3638 23.8207 34.1379C23.3713 32.7665 23.483 31.302 24.1353 30.0144C24.7871 28.7268 25.9019 27.7703 27.2733 27.3209L31.1039 26.0663C31.6488 25.8876 32.2131 25.7971 32.7815 25.7971C35.1263 25.7971 37.1914 27.2927 37.9209 29.5186C38.3702 30.8904 38.2585 32.3545 37.6063 33.6421C36.9541 34.9297 35.8397 35.8862 34.4683 36.3356L30.6377 37.5906C30.0928 37.7689 29.5284 37.8594 28.9601 37.8594ZM32.7844 27.9417C32.4406 27.9417 32.0996 27.9962 31.7715 28.1039L27.9409 29.3589C27.1137 29.6295 26.4413 30.2067 26.048 30.9834C25.6547 31.7598 25.5873 32.6431 25.8583 33.4703C26.2981 34.8129 27.5436 35.7152 28.9572 35.7152C29.3007 35.7152 29.6416 35.6606 29.9701 35.553L33.8007 34.298C34.6279 34.027 35.3003 33.4502 35.6936 32.6735C36.0869 31.8967 36.1543 31.0134 35.8833 30.1862C35.4431 28.8436 34.198 27.9417 32.7844 27.9417Z" fill="url(#paint6_linear_1_12034)"/>
<path d="M35.0681 30.4531C35.1989 30.8519 35.2219 31.2679 35.1421 31.6682L38.0557 34.5822C38.1692 34.4045 38.275 34.2203 38.3713 34.0295C39.0052 32.7782 39.1968 31.3826 38.9353 30.0272H34.8795C34.9542 30.1609 35.0187 30.3022 35.0681 30.4531Z" fill="url(#paint7_linear_1_12034)"/>
<path d="M39.4451 30.637L36.6483 31.7272C35.6551 32.1139 34.5367 31.6228 34.1497 30.6296C33.7626 29.6365 34.2537 28.5181 35.2468 28.131L38.0439 27.0411C39.0367 26.6541 40.1555 27.1455 40.5426 28.1383C40.9297 29.1315 40.4382 30.2502 39.4451 30.637Z" fill="url(#paint8_linear_1_12034)"/>
<path d="M39.2598 30.1609L36.4626 31.2511C35.4698 31.6378 34.3924 31.2533 34.057 30.3916C33.7212 29.5303 34.254 28.5181 35.2468 28.131L38.0439 27.0411C39.0367 26.654 40.1141 27.0389 40.4499 27.9003C40.7854 28.762 40.2526 29.7738 39.2598 30.1609Z" fill="url(#paint9_linear_1_12034)"/>
<path d="M29.891 28.476L20.6302 25.6001C20.1285 25.4437 19.5906 25.4437 19.0885 25.6001L9.82813 28.476C9.35864 28.621 8.95398 28.892 8.64636 29.2439C8.23914 29.7068 8 30.311 8 30.9574V41.6475C8 42.7853 8.74121 43.7913 9.82813 44.1285L19.0885 47.0044C19.3401 47.0824 19.5997 47.1223 19.8597 47.1223C20.1194 47.1223 20.379 47.0824 20.6302 47.0044L29.891 44.1285C30.9779 43.7913 31.7191 42.7853 31.7191 41.6475V30.9574C31.7191 30.311 31.4796 29.7068 31.0728 29.2439C30.7651 28.892 30.3601 28.621 29.891 28.476Z" fill="url(#paint10_linear_1_12034)"/>
<path d="M31.0731 29.2439L19.8597 32.7269L8.646 29.2439C8.95398 28.892 9.35864 28.6213 9.82813 28.476L19.0885 25.6001C19.5906 25.4437 20.1282 25.4437 20.6302 25.6001L29.891 28.476C30.3601 28.621 30.7651 28.892 31.0731 29.2439Z" fill="url(#paint11_linear_1_12034)"/>
<path d="M19.8594 32.7269V47.1219C19.5997 47.1219 19.3401 47.082 19.0885 47.0044L9.82812 44.1285C8.74121 43.7913 8 42.7849 8 41.6471V30.9574C8 30.311 8.23914 29.7068 8.646 29.2435L19.8594 32.7269Z" fill="url(#paint12_linear_1_12034)"/>
<path d="M31.7191 30.9574V41.6471C31.7191 42.7849 30.9779 43.7913 29.891 44.1285L20.6302 47.0044C20.379 47.082 20.1194 47.1219 19.8597 47.1219V32.7269L31.0731 29.2439C31.48 29.7068 31.7191 30.311 31.7191 30.9574Z" fill="url(#paint13_linear_1_12034)"/>
<defs>
<linearGradient id="paint0_linear_1_12034" x1="36.366" y1="19.9516" x2="53.998" y2="37.5836" gradientUnits="userSpaceOnUse">
<stop stop-color="#AF9CE6"/>
<stop offset="1" stop-color="#FF70AC"/>
</linearGradient>
<linearGradient id="paint1_linear_1_12034" x1="40.3087" y1="13.6533" x2="46.3407" y2="24.6949" gradientUnits="userSpaceOnUse">
<stop stop-color="#AF9CE6"/>
<stop offset="1" stop-color="#FF70AC"/>
</linearGradient>
<linearGradient id="paint2_linear_1_12034" x1="33.2053" y1="24.1433" x2="47.4384" y2="38.3763" gradientUnits="userSpaceOnUse">
<stop stop-color="#AF9CE6"/>
<stop offset="1" stop-color="#FF70AC"/>
</linearGradient>
<linearGradient id="paint3_linear_1_12034" x1="45.0323" y1="24.8915" x2="55.5726" y2="35.4319" gradientUnits="userSpaceOnUse">
<stop stop-color="#AF9CE6"/>
<stop offset="1" stop-color="#FF70AC"/>
</linearGradient>
<linearGradient id="paint4_linear_1_12034" x1="43.6926" y1="38.8691" x2="31.6855" y2="24.1175" gradientUnits="userSpaceOnUse">
<stop stop-color="#B53759" stop-opacity="0"/>
<stop offset="1" stop-color="#B53759"/>
</linearGradient>
<radialGradient id="paint5_radial_1_12034" cx="0" cy="0" r="1" gradientTransform="matrix(8.40003 -2.75169 2.2779 6.95303 29.9272 30.4983)" gradientUnits="userSpaceOnUse">
<stop stop-color="#4F4A72"/>
<stop offset="0.5643" stop-color="#4D4870"/>
<stop offset="0.8283" stop-color="#454269"/>
<stop offset="1" stop-color="#3B395F"/>
</radialGradient>
<linearGradient id="paint6_linear_1_12034" x1="32.7893" y1="34.1123" x2="37.292" y2="39.4726" gradientUnits="userSpaceOnUse">
<stop stop-color="#B53759" stop-opacity="0"/>
<stop offset="1" stop-color="#FFB5B0"/>
</linearGradient>
<linearGradient id="paint7_linear_1_12034" x1="39.1213" y1="34.135" x2="36.7484" y2="30.3899" gradientUnits="userSpaceOnUse">
<stop stop-color="#4F4A72" stop-opacity="0"/>
<stop offset="1" stop-color="#3B395F"/>
</linearGradient>
<linearGradient id="paint8_linear_1_12034" x1="35.3185" y1="27.682" x2="39.3744" y2="31.0929" gradientUnits="userSpaceOnUse">
<stop stop-color="#4F4A72"/>
<stop offset="1" stop-color="#3B395F"/>
</linearGradient>
<linearGradient id="paint9_linear_1_12034" x1="37.3126" y1="29.2237" x2="40.3573" y2="33.2118" gradientUnits="userSpaceOnUse">
<stop stop-color="#B53759" stop-opacity="0"/>
<stop offset="1" stop-color="#FFB5B0"/>
</linearGradient>
<linearGradient id="paint10_linear_1_12034" x1="12.085" y1="28.528" x2="29.7171" y2="46.16" gradientUnits="userSpaceOnUse">
<stop stop-color="#AF9CE6"/>
<stop offset="1" stop-color="#FF70AC"/>
</linearGradient>
<linearGradient id="paint11_linear_1_12034" x1="16.0278" y1="22.2297" x2="22.0598" y2="33.2713" gradientUnits="userSpaceOnUse">
<stop stop-color="#AF9CE6"/>
<stop offset="1" stop-color="#FF70AC"/>
</linearGradient>
<linearGradient id="paint12_linear_1_12034" x1="8.92437" y1="32.7197" x2="23.1574" y2="46.9528" gradientUnits="userSpaceOnUse">
<stop stop-color="#AF9CE6"/>
<stop offset="1" stop-color="#FF70AC"/>
</linearGradient>
<linearGradient id="paint13_linear_1_12034" x1="20.7513" y1="33.468" x2="31.2917" y2="44.0083" gradientUnits="userSpaceOnUse">
<stop stop-color="#AF9CE6"/>
<stop offset="1" stop-color="#FF70AC"/>
</linearGradient>
</defs>
</svg>
