<svg width="64" height="64" viewBox="0 0 64 64" fill="none" xmlns="http://www.w3.org/2000/svg">
<rect width="64" height="64" rx="10" fill="white"/>
<g clip-path="url(#clip0_1_12133)">
<path d="M39.9902 14.6107H46.4588C46.8531 14.6107 47.1727 14.9303 47.1727 15.3246V22.1514C47.1727 22.5457 46.8531 22.8653 46.4588 22.8653H40.269C39.5205 22.8653 38.9136 22.2585 38.9136 21.5099V13.5341C38.9136 14.1287 39.3956 14.6107 39.9902 14.6107Z" fill="url(#paint0_linear_1_12133)"/>
<path d="M45.3364 14.6107H39.9902C39.3956 14.6107 38.9136 14.1287 38.9136 13.5341V21.51C38.9136 22.2585 39.5204 22.8654 40.269 22.8654H45.3364V14.6107Z" fill="url(#paint1_linear_1_12133)"/>
<path d="M40.229 16.5634H38.9135V21.6551C38.9135 21.1224 39.3452 20.6907 39.8778 20.6907H39.9095C40.658 20.6907 41.2649 20.0839 41.2649 19.3353V15.5276C41.2649 16.0997 40.8011 16.5634 40.229 16.5634Z" fill="url(#paint2_linear_1_12133)"/>
<path d="M40.1882 18.2588H31.6704V10.0041H39.9095C40.658 10.0041 41.2649 10.6109 41.2649 11.3595V19.3354C41.2649 18.7408 40.7829 18.2588 40.1882 18.2588Z" fill="url(#paint3_linear_1_12133)"/>
<path d="M40.1882 18.2588C40.7829 18.2588 41.2649 18.7408 41.2649 19.3354V11.3594C41.2649 10.6109 40.6581 10.004 39.9095 10.004H38.9136V18.2588H40.1882Z" fill="url(#paint4_linear_1_12133)"/>
<path d="M29.9765 10.0235V26.8452C29.9765 27.9627 30.8824 28.8687 32 28.8687C33.1176 28.8687 34.0235 27.9627 34.0235 26.8452V10.0235C34.0235 8.90598 33.1176 8 32 8C30.8824 8 29.9765 8.90598 29.9765 10.0235Z" fill="url(#paint5_linear_1_12133)"/>
<path d="M54.1644 47.271C52.1845 45.6779 50.4104 44.1032 48.8207 42.5614C41.6951 35.6494 38.2767 29.3972 36.64 25.1054C36.0762 23.6268 33.9473 23.7398 33.5435 25.2711C33.3341 26.0635 32.667 26.4598 32 26.4598C31.333 26.4598 30.6659 26.0635 30.4565 25.2711C30.0527 23.7398 27.9238 23.6268 27.36 25.1054C25.7233 29.3972 22.3049 35.6494 15.1793 42.5614C13.5896 44.1032 11.8155 45.678 9.83558 47.271C8.67275 48.2065 8 49.6216 8 51.1142V52.1412C8 54.2724 9.72762 56 11.8588 56H32H52.1412C54.2724 56 56 54.2724 56 52.1412V51.1142C56 49.6216 55.3272 48.2065 54.1644 47.271Z" fill="url(#paint6_linear_1_12133)"/>
<path d="M56 51.1139V52.1407C56 54.2725 54.272 55.9995 52.1412 55.9995H11.8588C9.728 55.9995 8 54.2725 8 52.1407V51.1139C8 49.6221 8.67294 48.2066 9.83529 47.2711C11.8155 45.6776 13.5896 44.1031 15.1793 42.5614C19.1755 38.6847 22.0056 35.016 24.0094 31.784C24.0988 31.7511 24.1873 31.7125 24.2729 31.6692L30.5299 28.5332C31.4551 28.0701 32.5449 28.0701 33.4701 28.5332L39.7271 31.6692C39.8127 31.7125 39.9012 31.7511 39.9906 31.784C41.9944 35.016 44.8245 38.6847 48.8207 42.5614C50.4104 44.1031 52.1845 45.6776 54.1647 47.2711C55.3271 48.2066 56 49.6221 56 51.1139Z" fill="url(#paint7_linear_1_12133)"/>
<path d="M46.3339 56V54.4568C46.3339 49.8128 45.0842 47.6389 42.7188 43.6424C42.4887 43.2536 42.2645 42.8664 42.0461 42.4812C37.9569 35.2651 35.9126 28.7121 34.8916 24.0733C34.29 24.1557 33.7309 24.5603 33.5435 25.271C33.1247 26.8559 30.8753 26.8559 30.4565 25.271C30.2695 24.5605 29.7105 24.1559 29.1084 24.0733C28.0874 28.712 26.0431 35.2651 21.9539 42.4811C21.7355 42.8664 21.5114 43.2536 21.2812 43.6424C18.9159 47.6388 17.6661 49.8127 17.6661 54.4567V56H46.3339Z" fill="url(#paint8_linear_1_12133)"/>
<path d="M34.7844 42.814C34.7246 42.4033 34.6664 41.9944 34.6097 41.5876C33.8093 35.8451 33.3107 30.5005 32.9999 26.1184C32.4264 26.572 31.5738 26.572 31.0002 26.1184C30.6894 30.5005 30.1908 35.8451 29.3904 41.5876C29.3336 41.9944 29.2755 42.4034 29.2157 42.814C28.6013 47.035 28.2766 49.4651 28.2766 54.37V56H35.7236V54.37C35.7235 49.4651 35.3988 47.035 34.7844 42.814Z" fill="url(#paint9_linear_1_12133)"/>
<path d="M15.1793 42.5614C13.5896 44.1032 11.8155 45.678 9.83558 47.271C8.67275 48.2065 8 49.6216 8 51.1142V52.1412C8 54.2724 9.72762 56 11.8588 56H32H52.1412C54.2724 56 56 54.2724 56 52.1412V51.1142C56 49.6217 55.3272 48.2065 54.1644 47.271C52.1845 45.6779 50.4104 44.1032 48.8207 42.5614C48.0273 41.7917 47.2801 41.0303 46.5759 40.2789H17.4241C16.7199 41.0303 15.9727 41.7917 15.1793 42.5614Z" fill="url(#paint10_linear_1_12133)"/>
<path d="M24.271 19.5309L22.1498 19.0184C21.9524 18.9706 21.78 18.851 21.6663 18.6829L20.4435 16.8754C20.2956 16.6568 20.069 16.5395 19.8358 16.5206C19.6027 16.5395 19.376 16.6568 19.2281 16.8754L18.0053 18.6829C17.8915 18.851 17.7191 18.9707 17.5218 19.0184L15.4006 19.5309C14.8252 19.6699 14.5855 20.3567 14.9492 20.8237L16.2904 22.5452C16.4152 22.7054 16.4756 22.9064 16.46 23.1087L16.2919 25.2845C16.2463 25.8747 16.8254 26.315 17.3819 26.1133L19.4336 25.3697C19.5632 25.3227 19.7015 25.3106 19.8358 25.3314C19.97 25.3106 20.1083 25.3227 20.238 25.3697L22.2897 26.1133C22.8462 26.315 23.4254 25.8747 23.3797 25.2845L23.2116 23.1087C23.196 22.9063 23.2565 22.7053 23.3812 22.5452L24.7224 20.8237C25.0862 20.3568 24.8463 19.6699 24.271 19.5309Z" fill="url(#paint11_linear_1_12133)"/>
<path d="M20.2379 25.3698L22.2897 26.1134C22.8462 26.3151 23.4253 25.8748 23.3797 25.2846L23.2116 23.1088C23.1959 22.9064 23.2565 22.7054 23.3812 22.5453L24.7223 20.8238C25.0861 20.3569 24.8463 19.67 24.271 19.531L22.1497 19.0184C21.9524 18.9707 21.7799 18.8511 21.6662 18.683L20.4435 16.8755C20.2955 16.6568 20.069 16.5396 19.8358 16.5207V25.3316C19.97 25.3107 20.1082 25.3228 20.2379 25.3698Z" fill="url(#paint12_linear_1_12133)"/>
<path d="M24.271 19.5309L22.1498 19.0184C22.0774 19.0008 22.0085 18.9735 21.9444 18.9378L16.5369 25.9321C16.7491 26.1371 17.0691 26.2267 17.382 26.1133L19.4338 25.3697C19.5634 25.3227 19.7016 25.3106 19.8359 25.3314C19.9701 25.3106 20.1084 25.3227 20.2381 25.3697L22.2899 26.1133C22.8464 26.315 23.4255 25.8747 23.3798 25.2845L23.2117 23.1087C23.1961 22.9063 23.2566 22.7053 23.3814 22.5452L24.7225 20.8237C25.0862 20.3568 24.8464 19.6699 24.271 19.5309Z" fill="url(#paint13_linear_1_12133)"/>
<path d="M15.4005 19.5309L17.5217 19.0184C17.5941 19.0008 17.663 18.9735 17.7271 18.9378L23.1346 25.9321C22.9224 26.1371 22.6024 26.2267 22.2895 26.1133L20.2377 25.3697C20.1081 25.3227 19.9699 25.3106 19.8356 25.3314C19.7014 25.3106 19.5631 25.3227 19.4334 25.3697L17.3816 26.1133C16.8251 26.315 16.246 25.8747 16.2917 25.2845L16.4598 23.1087C16.4754 22.9063 16.4149 22.7053 16.2902 22.5452L14.949 20.8237C14.5853 20.3568 14.8251 19.6699 15.4005 19.5309Z" fill="url(#paint14_linear_1_12133)"/>
<path d="M14.8359 20.0225C14.7351 20.2769 14.7592 20.58 14.9492 20.8237L16.2903 22.5452C16.4151 22.7054 16.4756 22.9064 16.4599 23.1087L16.2919 25.2845C16.2463 25.8747 16.8253 26.315 17.3818 26.1133L19.4336 25.3697C19.5632 25.3227 19.7015 25.3106 19.8358 25.3314C19.97 25.3106 20.1082 25.3227 20.2379 25.3697L22.2897 26.1133C22.8462 26.315 23.4253 25.8747 23.3797 25.2845L23.2116 23.1087C23.2029 22.9964 23.2184 22.8848 23.2547 22.7801L14.8359 20.0225Z" fill="url(#paint15_linear_1_12133)"/>
<path d="M24.8364 20.0225C24.9373 20.2769 24.9131 20.58 24.7232 20.8237L23.382 22.5452C23.2572 22.7054 23.1968 22.9064 23.2124 23.1087L23.3805 25.2845C23.4261 25.8747 22.847 26.315 22.2905 26.1133L20.2388 25.3697C20.1092 25.3227 19.9709 25.3106 19.8366 25.3314C19.7024 25.3106 19.5641 25.3227 19.4344 25.3697L17.3827 26.1133C16.8262 26.315 16.247 25.8747 16.2927 25.2845L16.4608 23.1087C16.4694 22.9964 16.4539 22.8848 16.4177 22.7801L24.8364 20.0225Z" fill="url(#paint16_linear_1_12133)"/>
<path d="M24.049 21.6881H15.6225L16.2903 22.5452C16.4151 22.7054 16.4755 22.9064 16.4599 23.1087L16.2918 25.2845C16.2462 25.8747 16.8252 26.315 17.3817 26.1133L19.4335 25.3697C19.5631 25.3227 19.7014 25.3106 19.8357 25.3314C19.9699 25.3106 20.1081 25.3227 20.2378 25.3697L22.2896 26.1133C22.8461 26.315 23.4252 25.8747 23.3796 25.2845L23.2115 23.1087C23.1959 22.9063 23.2564 22.7053 23.3811 22.5452L24.049 21.6881Z" fill="url(#paint17_linear_1_12133)"/>
<path d="M17.4947 29.6956L15.3734 29.1831C15.1761 29.1353 15.0037 29.0157 14.89 28.8476L13.6672 27.0401C13.5192 26.8215 13.2927 26.7042 13.0595 26.6853C12.8263 26.7042 12.5997 26.8215 12.4518 27.0401L11.229 28.8476C11.1152 29.0157 10.9428 29.1354 10.7455 29.1831L8.62408 29.6956C8.04865 29.8346 7.80893 30.5214 8.1727 30.9884L9.51387 32.7099C9.63867 32.8701 9.6991 33.0711 9.68347 33.2734L9.51538 35.4492C9.46982 36.0394 10.0488 36.4797 10.6054 36.278L12.6571 35.5344C12.7867 35.4874 12.925 35.4753 13.0593 35.4961C13.1935 35.4753 13.3318 35.4874 13.4614 35.5344L15.5132 36.278C16.0697 36.4797 16.6488 36.0394 16.6032 35.4492L16.4351 33.2734C16.4195 33.071 16.48 32.87 16.6047 32.7099L17.9459 30.9884C18.3098 30.5215 18.07 29.8346 17.4947 29.6956Z" fill="url(#paint18_linear_1_12133)"/>
<path d="M13.4615 35.5345L15.5132 36.2781C16.0697 36.4798 16.6488 36.0395 16.6032 35.4493L16.4351 33.2735C16.4195 33.0711 16.48 32.8701 16.6047 32.71L17.9459 30.9885C18.3096 30.5216 18.0698 29.8347 17.4945 29.6957L15.3733 29.1832C15.1759 29.1354 15.0035 29.0158 14.8898 28.8477L13.667 27.0402C13.5191 26.8216 13.2925 26.7043 13.0593 26.6854V35.4963C13.1935 35.4754 13.3318 35.4875 13.4615 35.5345Z" fill="url(#paint19_linear_1_12133)"/>
<path d="M17.4946 29.6956L15.3734 29.1831C15.301 29.1656 15.232 29.1382 15.1679 29.1025L9.76047 36.0968C9.97261 36.3018 10.2926 36.3914 10.6055 36.278L12.6573 35.5344C12.7869 35.4874 12.9252 35.4753 13.0595 35.4961C13.1937 35.4753 13.3319 35.4874 13.4616 35.5344L15.5134 36.278C16.0699 36.4797 16.649 36.0394 16.6034 35.4492L16.4353 33.2734C16.4197 33.071 16.4802 32.87 16.6049 32.7099L17.9461 30.9884C18.3097 30.5215 18.0699 29.8346 17.4946 29.6956Z" fill="url(#paint20_linear_1_12133)"/>
<path d="M8.624 29.6956L10.7452 29.1831C10.8176 29.1656 10.8866 29.1382 10.9507 29.1025L16.3581 36.0968C16.146 36.3018 15.826 36.3914 15.513 36.278L13.4613 35.5344C13.3317 35.4874 13.1934 35.4753 13.0591 35.4961C12.9249 35.4753 12.7866 35.4874 12.6569 35.5344L10.6052 36.278C10.0487 36.4797 9.46955 36.0394 9.5152 35.4492L9.68329 33.2734C9.69892 33.071 9.6384 32.87 9.51369 32.7099L8.17252 30.9884C7.80885 30.5215 8.04866 29.8346 8.624 29.6956Z" fill="url(#paint21_linear_1_12133)"/>
<path d="M8.05949 30.1872C7.95859 30.4416 7.98278 30.7447 8.17271 30.9884L9.51389 32.7099C9.63869 32.8701 9.69911 33.0711 9.68349 33.2734L9.51539 35.4492C9.46984 36.0394 10.0489 36.4797 10.6054 36.278L12.6571 35.5344C12.7867 35.4874 12.925 35.4753 13.0593 35.4961C13.1935 35.4753 13.3318 35.4874 13.4615 35.5344L15.5132 36.278C16.0697 36.4797 16.6489 36.0394 16.6032 35.4492L16.4351 33.2734C16.4265 33.1611 16.442 33.0495 16.4782 32.9448L8.05949 30.1872Z" fill="url(#paint22_linear_1_12133)"/>
<path d="M18.06 30.1872C18.1608 30.4416 18.1367 30.7447 17.9467 30.9884L16.6056 32.7099C16.4808 32.8701 16.4203 33.0711 16.436 33.2734L16.604 35.4492C16.6496 36.0394 16.0706 36.4797 15.5141 36.278L13.4623 35.5344C13.3327 35.4874 13.1944 35.4753 13.0601 35.4961C12.9259 35.4753 12.7877 35.4874 12.658 35.5344L10.6062 36.278C10.0497 36.4797 9.47059 36.0394 9.51624 35.4492L9.68433 33.2734C9.69299 33.1611 9.67746 33.0495 9.64122 32.9448L18.06 30.1872Z" fill="url(#paint23_linear_1_12133)"/>
<path d="M17.2726 31.8528H8.84604L9.5138 32.7099C9.6386 32.8701 9.69903 33.0711 9.6834 33.2734L9.51531 35.4492C9.46976 36.0394 10.0488 36.4797 10.6053 36.278L12.6571 35.5344C12.7867 35.4874 12.9249 35.4753 13.0592 35.4961C13.1934 35.4753 13.3317 35.4874 13.4614 35.5344L15.5131 36.278C16.0697 36.4797 16.6488 36.0394 16.6031 35.4492L16.435 33.2734C16.4194 33.071 16.4799 32.87 16.6046 32.7099L17.2726 31.8528Z" fill="url(#paint24_linear_1_12133)"/>
<path d="M55.376 29.6956L53.2547 29.1831C53.0574 29.1353 52.8849 29.0157 52.7712 28.8476L51.5485 27.0401C51.4005 26.8215 51.174 26.7042 50.9408 26.6853C50.7076 26.7042 50.481 26.8215 50.333 27.0401L49.1103 28.8476C48.9965 29.0157 48.824 29.1354 48.6268 29.1831L46.5056 29.6956C45.9301 29.8346 45.6904 30.5214 46.0542 30.9884L47.3953 32.7099C47.5201 32.8701 47.5806 33.0711 47.5649 33.2734L47.3968 35.4492C47.3513 36.0394 47.9303 36.4797 48.4868 36.278L50.5385 35.5344C50.6681 35.4874 50.8064 35.4753 50.9407 35.4961C51.0749 35.4753 51.2131 35.4874 51.3428 35.5344L53.3946 36.278C53.9511 36.4797 54.5302 36.0394 54.4846 35.4492L54.3165 33.2734C54.3008 33.071 54.3614 32.87 54.4861 32.7099L55.8272 30.9884C56.1911 30.5215 55.9513 29.8346 55.376 29.6956Z" fill="url(#paint25_linear_1_12133)"/>
<path d="M51.3429 35.5345L53.3946 36.2781C53.9512 36.4798 54.5303 36.0395 54.4846 35.4493L54.3165 33.2735C54.3009 33.0711 54.3614 32.8701 54.4861 32.71L55.8273 30.9885C56.1911 30.5216 55.9512 29.8347 55.3759 29.6957L53.2547 29.1832C53.0573 29.1354 52.8849 29.0158 52.7712 28.8477L51.5484 27.0402C51.4005 26.8216 51.1739 26.7043 50.9407 26.6854V35.4963C51.0749 35.4754 51.2132 35.4875 51.3429 35.5345Z" fill="url(#paint26_linear_1_12133)"/>
<path d="M55.376 29.6956L53.2548 29.1831C53.1824 29.1656 53.1134 29.1382 53.0493 29.1025L47.6419 36.0968C47.854 36.3018 48.174 36.3914 48.487 36.278L50.5386 35.5344C50.6682 35.4874 50.8065 35.4753 50.9408 35.4961C51.075 35.4753 51.2133 35.4874 51.343 35.5344L53.3947 36.278C53.9512 36.4797 54.5303 36.0394 54.4847 35.4492L54.3166 33.2734C54.301 33.071 54.3615 32.87 54.4862 32.7099L55.8274 30.9884C56.1911 30.5215 55.9513 29.8346 55.376 29.6956Z" fill="url(#paint27_linear_1_12133)"/>
<path d="M46.5054 29.6956L48.6266 29.1831C48.699 29.1656 48.768 29.1382 48.8321 29.1025L54.2395 36.0968C54.0274 36.3018 53.7074 36.3914 53.3944 36.278L51.3427 35.5344C51.2131 35.4874 51.0748 35.4753 50.9405 35.4961C50.8063 35.4753 50.668 35.4874 50.5384 35.5344L48.4867 36.278C47.9302 36.4797 47.3511 36.0394 47.3967 35.4492L47.5648 33.2734C47.5804 33.071 47.5199 32.87 47.3952 32.7099L46.054 30.9884C45.6903 30.5215 45.9301 29.8346 46.5054 29.6956Z" fill="url(#paint28_linear_1_12133)"/>
<path d="M45.9409 30.1872C45.84 30.4416 45.8642 30.7447 46.0541 30.9884L47.3953 32.7099C47.5201 32.8701 47.5805 33.0711 47.5649 33.2734L47.3968 35.4492C47.3512 36.0394 47.9303 36.4797 48.4868 36.278L50.5384 35.5344C50.668 35.4874 50.8063 35.4753 50.9406 35.4961C51.0748 35.4753 51.2131 35.4874 51.3428 35.5344L53.3945 36.278C53.9511 36.4797 54.5302 36.0394 54.4845 35.4492L54.3164 33.2734C54.3078 33.1611 54.3233 33.0495 54.3595 32.9448L45.9409 30.1872Z" fill="url(#paint29_linear_1_12133)"/>
<path d="M55.9414 30.1872C56.0423 30.4416 56.0181 30.7447 55.8281 30.9884L54.487 32.7099C54.3622 32.8701 54.3017 33.0711 54.3174 33.2734L54.4855 35.4492C54.531 36.0394 53.952 36.4797 53.3955 36.278L51.3438 35.5344C51.2142 35.4874 51.0759 35.4753 50.9416 35.4961C50.8074 35.4753 50.6692 35.4874 50.5395 35.5344L48.4878 36.278C47.9313 36.4797 47.3522 36.0394 47.3978 35.4492L47.5659 33.2734C47.5746 33.1611 47.5591 33.0495 47.5228 32.9448L55.9414 30.1872Z" fill="url(#paint30_linear_1_12133)"/>
<path d="M55.154 31.8528H46.7275L47.3953 32.7099C47.5201 32.8701 47.5805 33.0711 47.5649 33.2734L47.3968 35.4492C47.3513 36.0394 47.9303 36.4797 48.4868 36.278L50.5385 35.5344C50.6681 35.4874 50.8064 35.4753 50.9407 35.4961C51.0749 35.4753 51.2132 35.4874 51.3429 35.5344L53.3946 36.278C53.9512 36.4797 54.5303 36.0394 54.4846 35.4492L54.3165 33.2734C54.3009 33.071 54.3614 32.87 54.4861 32.7099L55.154 31.8528Z" fill="url(#paint31_linear_1_12133)"/>
</g>
<defs>
<linearGradient id="paint0_linear_1_12133" x1="40.2451" y1="15.7522" x2="45.1988" y2="20.7058" gradientUnits="userSpaceOnUse">
<stop stop-color="#BBEC6C"/>
<stop offset="1" stop-color="#81B823"/>
</linearGradient>
<linearGradient id="paint1_linear_1_12133" x1="44.0736" y1="18.5636" x2="40.1834" y2="18.2498" gradientUnits="userSpaceOnUse">
<stop stop-color="#78A91F" stop-opacity="0"/>
<stop offset="1" stop-color="#78A91F"/>
</linearGradient>
<linearGradient id="paint2_linear_1_12133" x1="42.2996" y1="20.7683" x2="38.1584" y2="16.6898" gradientUnits="userSpaceOnUse">
<stop stop-color="#433F43" stop-opacity="0"/>
<stop offset="1" stop-color="#1A1A1A"/>
</linearGradient>
<linearGradient id="paint3_linear_1_12133" x1="35.5059" y1="12.61" x2="37.8202" y2="17.537" gradientUnits="userSpaceOnUse">
<stop stop-color="#BBEC6C"/>
<stop offset="1" stop-color="#81B823"/>
</linearGradient>
<linearGradient id="paint4_linear_1_12133" x1="40.1255" y1="14.6697" x2="41.3242" y2="14.6697" gradientUnits="userSpaceOnUse">
<stop stop-color="#78A91F" stop-opacity="0"/>
<stop offset="1" stop-color="#78A91F"/>
</linearGradient>
<linearGradient id="paint5_linear_1_12133" x1="30.6824" y1="18.4344" x2="34.0099" y2="18.4344" gradientUnits="userSpaceOnUse">
<stop stop-color="#E6E6E6"/>
<stop offset="1" stop-color="#999999"/>
</linearGradient>
<linearGradient id="paint6_linear_1_12133" x1="22.764" y1="29.7209" x2="31.6733" y2="50.7469" gradientUnits="userSpaceOnUse">
<stop stop-color="#F9F5F3"/>
<stop offset="1" stop-color="#D8E8F0"/>
</linearGradient>
<linearGradient id="paint7_linear_1_12133" x1="24.5275" y1="33.8827" x2="32.317" y2="52.2659" gradientUnits="userSpaceOnUse">
<stop stop-color="#B3DAFE"/>
<stop offset="1" stop-color="#0182FC"/>
</linearGradient>
<linearGradient id="paint8_linear_1_12133" x1="20.7133" y1="23.9839" x2="34.2663" y2="59.5604" gradientUnits="userSpaceOnUse">
<stop stop-color="#0182FC" stop-opacity="0"/>
<stop offset="0.1877" stop-color="#0181F8" stop-opacity="0.188"/>
<stop offset="0.351" stop-color="#017DEE" stop-opacity="0.351"/>
<stop offset="0.5052" stop-color="#0176DC" stop-opacity="0.505"/>
<stop offset="0.6539" stop-color="#016DC3" stop-opacity="0.654"/>
<stop offset="0.7986" stop-color="#0261A2" stop-opacity="0.799"/>
<stop offset="0.9384" stop-color="#02537B" stop-opacity="0.938"/>
<stop offset="1" stop-color="#024C67"/>
</linearGradient>
<linearGradient id="paint9_linear_1_12133" x1="38.9585" y1="36.8025" x2="25.5938" y2="46.9672" gradientUnits="userSpaceOnUse">
<stop stop-color="#0182FC" stop-opacity="0"/>
<stop offset="0.1877" stop-color="#0181F8" stop-opacity="0.188"/>
<stop offset="0.351" stop-color="#017DEE" stop-opacity="0.351"/>
<stop offset="0.5052" stop-color="#0176DC" stop-opacity="0.505"/>
<stop offset="0.6539" stop-color="#016DC3" stop-opacity="0.654"/>
<stop offset="0.7986" stop-color="#0261A2" stop-opacity="0.799"/>
<stop offset="0.9384" stop-color="#02537B" stop-opacity="0.938"/>
<stop offset="1" stop-color="#024C67"/>
</linearGradient>
<linearGradient id="paint10_linear_1_12133" x1="32" y1="48.8159" x2="32" y2="55.5949" gradientUnits="userSpaceOnUse">
<stop stop-color="#0182FC" stop-opacity="0"/>
<stop offset="0.1877" stop-color="#0181F8" stop-opacity="0.188"/>
<stop offset="0.351" stop-color="#017DEE" stop-opacity="0.351"/>
<stop offset="0.5052" stop-color="#0176DC" stop-opacity="0.505"/>
<stop offset="0.6539" stop-color="#016DC3" stop-opacity="0.654"/>
<stop offset="0.7986" stop-color="#0261A2" stop-opacity="0.799"/>
<stop offset="0.9384" stop-color="#02537B" stop-opacity="0.938"/>
<stop offset="1" stop-color="#024C67"/>
</linearGradient>
<linearGradient id="paint11_linear_1_12133" x1="17.5826" y1="19.8253" x2="21.6456" y2="23.8884" gradientUnits="userSpaceOnUse">
<stop stop-color="#FEF0AE"/>
<stop offset="1" stop-color="#FBC56D"/>
</linearGradient>
<linearGradient id="paint12_linear_1_12133" x1="22.2703" y1="20.9332" x2="16.6546" y2="23.2547" gradientUnits="userSpaceOnUse">
<stop stop-color="#F6A96C" stop-opacity="0"/>
<stop offset="0.9957" stop-color="#F6A96C" stop-opacity="0.996"/>
<stop offset="1" stop-color="#F6A96C"/>
</linearGradient>
<linearGradient id="paint13_linear_1_12133" x1="20.804" y1="22.926" x2="17.7295" y2="21.6084" gradientUnits="userSpaceOnUse">
<stop stop-color="#F6A96C" stop-opacity="0"/>
<stop offset="0.9957" stop-color="#F6A96C" stop-opacity="0.996"/>
<stop offset="1" stop-color="#F6A96C"/>
</linearGradient>
<linearGradient id="paint14_linear_1_12133" x1="18.8675" y1="22.926" x2="21.942" y2="21.6084" gradientUnits="userSpaceOnUse">
<stop stop-color="#F6A96C" stop-opacity="0"/>
<stop offset="0.9957" stop-color="#F6A96C" stop-opacity="0.996"/>
<stop offset="1" stop-color="#F6A96C"/>
</linearGradient>
<linearGradient id="paint15_linear_1_12133" x1="18.9358" y1="23.0802" x2="20.9123" y2="19.9037" gradientUnits="userSpaceOnUse">
<stop stop-color="#F6A96C" stop-opacity="0"/>
<stop offset="0.9957" stop-color="#F6A96C" stop-opacity="0.996"/>
<stop offset="1" stop-color="#F6A96C"/>
</linearGradient>
<linearGradient id="paint16_linear_1_12133" x1="20.5842" y1="22.6791" x2="20.4195" y2="19.5732" gradientUnits="userSpaceOnUse">
<stop stop-color="#F6A96C" stop-opacity="0"/>
<stop offset="0.9957" stop-color="#F6A96C" stop-opacity="0.996"/>
<stop offset="1" stop-color="#F6A96C"/>
</linearGradient>
<linearGradient id="paint17_linear_1_12133" x1="19.8358" y1="23.4425" x2="19.8358" y2="26.8936" gradientUnits="userSpaceOnUse">
<stop stop-color="#DC8758" stop-opacity="0"/>
<stop offset="0.9957" stop-color="#DC8758" stop-opacity="0.996"/>
<stop offset="1" stop-color="#DC8758"/>
</linearGradient>
<linearGradient id="paint18_linear_1_12133" x1="10.8063" y1="29.99" x2="14.8693" y2="34.0531" gradientUnits="userSpaceOnUse">
<stop stop-color="#FEF0AE"/>
<stop offset="1" stop-color="#FBC56D"/>
</linearGradient>
<linearGradient id="paint19_linear_1_12133" x1="15.4938" y1="31.0979" x2="9.87812" y2="33.4194" gradientUnits="userSpaceOnUse">
<stop stop-color="#F6A96C" stop-opacity="0"/>
<stop offset="0.9957" stop-color="#F6A96C" stop-opacity="0.996"/>
<stop offset="1" stop-color="#F6A96C"/>
</linearGradient>
<linearGradient id="paint20_linear_1_12133" x1="14.0276" y1="33.0907" x2="10.953" y2="31.7731" gradientUnits="userSpaceOnUse">
<stop stop-color="#F6A96C" stop-opacity="0"/>
<stop offset="0.9957" stop-color="#F6A96C" stop-opacity="0.996"/>
<stop offset="1" stop-color="#F6A96C"/>
</linearGradient>
<linearGradient id="paint21_linear_1_12133" x1="12.091" y1="33.0907" x2="15.1656" y2="31.7731" gradientUnits="userSpaceOnUse">
<stop stop-color="#F6A96C" stop-opacity="0"/>
<stop offset="0.9957" stop-color="#F6A96C" stop-opacity="0.996"/>
<stop offset="1" stop-color="#F6A96C"/>
</linearGradient>
<linearGradient id="paint22_linear_1_12133" x1="12.1593" y1="33.2449" x2="14.1358" y2="30.0684" gradientUnits="userSpaceOnUse">
<stop stop-color="#F6A96C" stop-opacity="0"/>
<stop offset="0.9957" stop-color="#F6A96C" stop-opacity="0.996"/>
<stop offset="1" stop-color="#F6A96C"/>
</linearGradient>
<linearGradient id="paint23_linear_1_12133" x1="13.8077" y1="32.8438" x2="13.643" y2="29.7379" gradientUnits="userSpaceOnUse">
<stop stop-color="#F6A96C" stop-opacity="0"/>
<stop offset="0.9957" stop-color="#F6A96C" stop-opacity="0.996"/>
<stop offset="1" stop-color="#F6A96C"/>
</linearGradient>
<linearGradient id="paint24_linear_1_12133" x1="13.0593" y1="33.6072" x2="13.0593" y2="37.0583" gradientUnits="userSpaceOnUse">
<stop stop-color="#DC8758" stop-opacity="0"/>
<stop offset="0.9957" stop-color="#DC8758" stop-opacity="0.996"/>
<stop offset="1" stop-color="#DC8758"/>
</linearGradient>
<linearGradient id="paint25_linear_1_12133" x1="48.6876" y1="29.99" x2="52.7505" y2="34.0531" gradientUnits="userSpaceOnUse">
<stop stop-color="#FEF0AE"/>
<stop offset="1" stop-color="#FBC56D"/>
</linearGradient>
<linearGradient id="paint26_linear_1_12133" x1="53.3752" y1="31.0979" x2="47.7595" y2="33.4194" gradientUnits="userSpaceOnUse">
<stop stop-color="#F6A96C" stop-opacity="0"/>
<stop offset="0.9957" stop-color="#F6A96C" stop-opacity="0.996"/>
<stop offset="1" stop-color="#F6A96C"/>
</linearGradient>
<linearGradient id="paint27_linear_1_12133" x1="51.909" y1="33.0907" x2="48.8344" y2="31.7731" gradientUnits="userSpaceOnUse">
<stop stop-color="#F6A96C" stop-opacity="0"/>
<stop offset="0.9957" stop-color="#F6A96C" stop-opacity="0.996"/>
<stop offset="1" stop-color="#F6A96C"/>
</linearGradient>
<linearGradient id="paint28_linear_1_12133" x1="49.9724" y1="33.0907" x2="53.047" y2="31.7731" gradientUnits="userSpaceOnUse">
<stop stop-color="#F6A96C" stop-opacity="0"/>
<stop offset="0.9957" stop-color="#F6A96C" stop-opacity="0.996"/>
<stop offset="1" stop-color="#F6A96C"/>
</linearGradient>
<linearGradient id="paint29_linear_1_12133" x1="50.0408" y1="33.2449" x2="52.0172" y2="30.0684" gradientUnits="userSpaceOnUse">
<stop stop-color="#F6A96C" stop-opacity="0"/>
<stop offset="0.9957" stop-color="#F6A96C" stop-opacity="0.996"/>
<stop offset="1" stop-color="#F6A96C"/>
</linearGradient>
<linearGradient id="paint30_linear_1_12133" x1="51.689" y1="32.8438" x2="51.5243" y2="29.7379" gradientUnits="userSpaceOnUse">
<stop stop-color="#F6A96C" stop-opacity="0"/>
<stop offset="0.9957" stop-color="#F6A96C" stop-opacity="0.996"/>
<stop offset="1" stop-color="#F6A96C"/>
</linearGradient>
<linearGradient id="paint31_linear_1_12133" x1="50.9407" y1="33.6072" x2="50.9407" y2="37.0583" gradientUnits="userSpaceOnUse">
<stop stop-color="#DC8758" stop-opacity="0"/>
<stop offset="0.9957" stop-color="#DC8758" stop-opacity="0.996"/>
<stop offset="1" stop-color="#DC8758"/>
</linearGradient>
<clipPath id="clip0_1_12133">
<rect width="48" height="48" fill="white" transform="translate(8 8)"/>
</clipPath>
</defs>
</svg>
