<svg width="64" height="64" viewBox="0 0 64 64" fill="none" xmlns="http://www.w3.org/2000/svg">
<rect width="64" height="64" rx="10" fill="white"/>
<g clip-path="url(#clip0_1_12183)">
<path d="M22.9606 54.9879H12.9621C12.4389 54.9879 12.0148 54.5638 12.0148 54.0406C12.0148 53.5174 12.439 53.0933 12.9621 53.0933H22.9606C23.7366 53.0933 24.368 52.4619 24.368 51.6858V47.1496C24.368 46.6264 24.7922 46.2023 25.3153 46.2023C25.8385 46.2023 26.2626 46.6264 26.2626 47.1496V51.6858C26.2626 53.5066 24.7813 54.9879 22.9606 54.9879Z" fill="url(#paint0_linear_1_12183)"/>
<path d="M12.3467 56C13.4454 56 14.336 55.1093 14.336 54.0106C14.336 52.9119 13.4454 52.0213 12.3467 52.0213C11.248 52.0213 10.3573 52.9119 10.3573 54.0106C10.3573 55.1093 11.248 56 12.3467 56Z" fill="url(#paint1_linear_1_12183)"/>
<path d="M41.0395 54.9879H51.0379C51.5611 54.9879 51.9852 54.5638 51.9852 54.0406C51.9852 53.5174 51.5611 53.0933 51.0379 53.0933H41.0395C40.2635 53.0933 39.632 52.4619 39.632 51.6858V47.1496C39.632 46.6264 39.2078 46.2023 38.6847 46.2023C38.1616 46.2023 37.7374 46.6264 37.7374 47.1496V51.6858C37.7374 53.5066 39.2187 54.9879 41.0395 54.9879Z" fill="url(#paint2_linear_1_12183)"/>
<path d="M51.6534 56C52.7521 56 53.6428 55.1093 53.6428 54.0106C53.6428 52.9119 52.7521 52.0213 51.6534 52.0213C50.5547 52.0213 49.6641 52.9119 49.6641 54.0106C49.6641 55.1093 50.5547 56 51.6534 56Z" fill="url(#paint3_linear_1_12183)"/>
<path d="M32 56C31.4768 56 31.0527 55.5759 31.0527 55.0527V47.1496C31.0527 46.6264 31.4768 46.2023 32 46.2023C32.5232 46.2023 32.9473 46.6264 32.9473 47.1496V55.0527C32.9473 55.5759 32.5232 56 32 56Z" fill="url(#paint4_linear_1_12183)"/>
<path d="M22.9606 9.01215H12.9621C12.4389 9.01215 12.0148 9.43624 12.0148 9.95944C12.0148 10.4826 12.439 10.9067 12.9621 10.9067H22.9606C23.7366 10.9067 24.368 11.5381 24.368 12.3142V16.8505C24.368 17.3737 24.7922 17.7977 25.3153 17.7977C25.8385 17.7977 26.2626 17.3737 26.2626 16.8505V12.3143C26.2626 10.4935 24.7813 9.01215 22.9606 9.01215Z" fill="url(#paint5_linear_1_12183)"/>
<path d="M12.3467 11.9787C13.4454 11.9787 14.336 11.0881 14.336 9.98936C14.336 8.89067 13.4454 8 12.3467 8C11.248 8 10.3573 8.89067 10.3573 9.98936C10.3573 11.0881 11.248 11.9787 12.3467 11.9787Z" fill="url(#paint6_linear_1_12183)"/>
<path d="M41.0395 9.01215H51.0379C51.5611 9.01215 51.9852 9.43624 51.9852 9.95944C51.9852 10.4826 51.5611 10.9067 51.0379 10.9067H41.0395C40.2635 10.9067 39.632 11.5381 39.632 12.3142V16.8505C39.632 17.3737 39.2078 17.7977 38.6847 17.7977C38.1616 17.7977 37.7374 17.3737 37.7374 16.8505V12.3143C37.7374 10.4935 39.2187 9.01215 41.0395 9.01215Z" fill="url(#paint7_linear_1_12183)"/>
<path d="M51.6534 11.9787C52.7521 11.9787 53.6428 11.0881 53.6428 9.98936C53.6428 8.89067 52.7521 8 51.6534 8C50.5547 8 49.6641 8.89067 49.6641 9.98936C49.6641 11.0881 50.5547 11.9787 51.6534 11.9787Z" fill="url(#paint8_linear_1_12183)"/>
<path d="M32 8C31.4768 8 31.0527 8.42409 31.0527 8.94729V16.8504C31.0527 17.3736 31.4768 17.7977 32 17.7977C32.5232 17.7977 32.9473 17.3736 32.9473 16.8504V8.94729C32.9473 8.42409 32.5232 8 32 8Z" fill="url(#paint9_linear_1_12183)"/>
<path d="M9.09082 22.9606V18.4133C9.09082 17.8901 9.51491 17.466 10.0381 17.466C10.5613 17.466 10.9854 17.8902 10.9854 18.4133V22.9606C10.9854 23.7366 11.6168 24.368 12.3928 24.368H16.9291C17.4523 24.368 17.8764 24.7922 17.8764 25.3153C17.8764 25.8384 17.4523 26.2626 16.9291 26.2626H12.3928C10.5721 26.2626 9.09082 24.7813 9.09082 22.9606Z" fill="url(#paint10_linear_1_12183)"/>
<path d="M10.068 19.7872C11.1667 19.7872 12.0573 18.8965 12.0573 17.7978C12.0573 16.6991 11.1667 15.8085 10.068 15.8085C8.96928 15.8085 8.07861 16.6991 8.07861 17.7978C8.07861 18.8965 8.96928 19.7872 10.068 19.7872Z" fill="url(#paint11_linear_1_12183)"/>
<path d="M9.09082 41.0395V45.5867C9.09082 46.1099 9.51491 46.534 10.0381 46.534C10.5613 46.534 10.9854 46.1099 10.9854 45.5867V41.0395C10.9854 40.2635 11.6168 39.632 12.3928 39.632H16.9291C17.4523 39.632 17.8764 39.2078 17.8764 38.6847C17.8764 38.1616 17.4523 37.7374 16.9291 37.7374H12.3928C10.5721 37.7374 9.09082 39.2187 9.09082 41.0395Z" fill="url(#paint12_linear_1_12183)"/>
<path d="M10.068 48.1916C11.1667 48.1916 12.0573 47.3009 12.0573 46.2022C12.0573 45.1035 11.1667 44.2128 10.068 44.2128C8.96928 44.2128 8.07861 45.1035 8.07861 46.2022C8.07861 47.3009 8.96928 48.1916 10.068 48.1916Z" fill="url(#paint13_linear_1_12183)"/>
<path d="M8.07861 32C8.07861 31.4768 8.50271 31.0527 9.02591 31.0527H16.9291C17.4523 31.0527 17.8764 31.4768 17.8764 32C17.8764 32.5232 17.4523 32.9473 16.9291 32.9473H9.026C8.5028 32.9473 8.07861 32.5232 8.07861 32Z" fill="url(#paint14_linear_1_12183)"/>
<path d="M54.9093 22.9606V18.4133C54.9093 17.8901 54.4852 17.466 53.962 17.466C53.4388 17.466 53.0147 17.8902 53.0147 18.4133V22.9606C53.0147 23.7366 52.3833 24.368 51.6072 24.368H47.071C46.5478 24.368 46.1237 24.7922 46.1237 25.3153C46.1237 25.8384 46.5478 26.2626 47.071 26.2626H51.6072C53.4279 26.2626 54.9093 24.7813 54.9093 22.9606Z" fill="url(#paint15_linear_1_12183)"/>
<path d="M53.9321 19.7872C55.0308 19.7872 55.9215 18.8965 55.9215 17.7978C55.9215 16.6991 55.0308 15.8085 53.9321 15.8085C52.8334 15.8085 51.9427 16.6991 51.9427 17.7978C51.9427 18.8965 52.8334 19.7872 53.9321 19.7872Z" fill="url(#paint16_linear_1_12183)"/>
<path d="M54.9093 41.0395V45.5867C54.9093 46.1099 54.4852 46.534 53.962 46.534C53.4388 46.534 53.0147 46.1099 53.0147 45.5867V41.0395C53.0147 40.2635 52.3833 39.632 51.6072 39.632H47.071C46.5478 39.632 46.1237 39.2078 46.1237 38.6847C46.1237 38.1616 46.5478 37.7374 47.071 37.7374H51.6072C53.4279 37.7374 54.9093 39.2187 54.9093 41.0395Z" fill="url(#paint17_linear_1_12183)"/>
<path d="M53.9321 48.1916C55.0308 48.1916 55.9215 47.3009 55.9215 46.2022C55.9215 45.1035 55.0308 44.2128 53.9321 44.2128C52.8334 44.2128 51.9427 45.1035 51.9427 46.2022C51.9427 47.3009 52.8334 48.1916 53.9321 48.1916Z" fill="url(#paint18_linear_1_12183)"/>
<path d="M55.9215 32C55.9215 31.4768 55.4974 31.0527 54.9742 31.0527H47.0711C46.5479 31.0527 46.1238 31.4768 46.1238 32C46.1238 32.5232 46.5479 32.9473 47.0711 32.9473H54.9742C55.4973 32.9473 55.9215 32.5232 55.9215 32Z" fill="url(#paint19_linear_1_12183)"/>
<path d="M46.1564 28.7166H44.3833C43.098 28.7166 42.0562 27.6747 42.0562 26.3894V24.4769C42.0562 23.1916 43.098 22.1497 44.3833 22.1497H46.1564C47.4417 22.1497 48.4835 23.1916 48.4835 24.4769V26.3894C48.4835 27.6747 47.4417 28.7166 46.1564 28.7166Z" fill="url(#paint20_linear_1_12183)"/>
<path d="M46.1564 35.2834H44.3833C43.098 35.2834 42.0562 34.2415 42.0562 32.9562V31.0437C42.0562 29.7585 43.098 28.7166 44.3833 28.7166H46.1564C47.4417 28.7166 48.4835 29.7585 48.4835 31.0437V32.9563C48.4835 34.2415 47.4417 35.2834 46.1564 35.2834Z" fill="url(#paint21_linear_1_12183)"/>
<path d="M46.1564 41.8501H44.3833C43.098 41.8501 42.0562 40.8083 42.0562 39.523V37.6104C42.0562 36.3251 43.098 35.2833 44.3833 35.2833H46.1564C47.4417 35.2833 48.4835 36.3251 48.4835 37.6104V39.523C48.4835 40.8083 47.4417 41.8501 46.1564 41.8501Z" fill="url(#paint22_linear_1_12183)"/>
<path d="M19.6168 28.7166H17.8438C16.5585 28.7166 15.5166 27.6747 15.5166 26.3894V24.4769C15.5166 23.1916 16.5585 22.1497 17.8438 22.1497H19.6168C20.9021 22.1497 21.944 23.1916 21.944 24.4769V26.3894C21.9439 27.6747 20.902 28.7166 19.6168 28.7166Z" fill="url(#paint23_linear_1_12183)"/>
<path d="M19.6168 35.2834H17.8438C16.5585 35.2834 15.5166 34.2415 15.5166 32.9562V31.0437C15.5166 29.7585 16.5585 28.7166 17.8438 28.7166H19.6168C20.9021 28.7166 21.944 29.7585 21.944 31.0437V32.9563C21.9439 34.2415 20.902 35.2834 19.6168 35.2834Z" fill="url(#paint24_linear_1_12183)"/>
<path d="M19.6168 41.8501H17.8438C16.5585 41.8501 15.5166 40.8083 15.5166 39.523V37.6104C15.5166 36.3251 16.5585 35.2833 17.8438 35.2833H19.6168C20.9021 35.2833 21.944 36.3251 21.944 37.6104V39.523C21.9439 40.8083 20.902 41.8501 19.6168 41.8501Z" fill="url(#paint25_linear_1_12183)"/>
<path d="M28.7167 46.1563V44.3832C28.7167 43.098 27.6748 42.0561 26.3895 42.0561H24.4769C23.1917 42.0561 22.1498 43.098 22.1498 44.3832V46.1563C22.1498 47.4416 23.1917 48.4835 24.4769 48.4835H26.3895C27.6748 48.4835 28.7167 47.4416 28.7167 46.1563Z" fill="url(#paint26_linear_1_12183)"/>
<path d="M35.2835 46.1563V44.3832C35.2835 43.098 34.2416 42.0561 32.9563 42.0561H31.0438C29.7586 42.0561 28.7167 43.098 28.7167 44.3832V46.1563C28.7167 47.4416 29.7586 48.4835 31.0438 48.4835H32.9564C34.2416 48.4835 35.2835 47.4416 35.2835 46.1563Z" fill="url(#paint27_linear_1_12183)"/>
<path d="M41.8502 46.1563V44.3832C41.8502 43.098 40.8083 42.0561 39.523 42.0561H37.6105C36.3252 42.0561 35.2833 43.098 35.2833 44.3832V46.1563C35.2833 47.4416 36.3252 48.4835 37.6105 48.4835H39.523C40.8083 48.4835 41.8502 47.4416 41.8502 46.1563Z" fill="url(#paint28_linear_1_12183)"/>
<path d="M28.7167 19.6167V17.8437C28.7167 16.5584 27.6748 15.5165 26.3895 15.5165H24.4769C23.1917 15.5165 22.1498 16.5584 22.1498 17.8437V19.6167C22.1498 20.902 23.1917 21.9439 24.4769 21.9439H26.3895C27.6748 21.9438 28.7167 20.9019 28.7167 19.6167Z" fill="url(#paint29_linear_1_12183)"/>
<path d="M35.2835 19.6167V17.8437C35.2835 16.5584 34.2416 15.5165 32.9563 15.5165H31.0438C29.7586 15.5165 28.7167 16.5584 28.7167 17.8437V19.6167C28.7167 20.902 29.7586 21.9439 31.0438 21.9439H32.9564C34.2416 21.9438 35.2835 20.9019 35.2835 19.6167Z" fill="url(#paint30_linear_1_12183)"/>
<path d="M41.8502 19.6167V17.8437C41.8502 16.5584 40.8083 15.5165 39.523 15.5165H37.6105C36.3252 15.5165 35.2833 16.5584 35.2833 17.8437V19.6167C35.2833 20.902 36.3252 21.9439 37.6105 21.9439H39.523C40.8083 21.9438 41.8502 20.9019 41.8502 19.6167Z" fill="url(#paint31_linear_1_12183)"/>
<path d="M41.4158 45.0098H22.5845C20.5996 45.0098 18.9904 43.4007 18.9904 41.4156V22.5844C18.9904 20.5994 20.5995 18.9902 22.5845 18.9902H41.4158C43.4007 18.9902 45.0099 20.5993 45.0099 22.5844V41.4156C45.0099 43.4006 43.4007 45.0098 41.4158 45.0098Z" fill="url(#paint32_linear_1_12183)"/>
<path d="M24.5339 21.6837H39.4664C41.0404 21.6837 42.3163 22.9597 42.3163 24.5337V39.4661C42.3163 41.0402 41.0404 42.3161 39.4664 42.3161H24.5339C22.9599 42.3161 21.684 41.0402 21.684 39.4661V24.5337C21.684 22.9597 22.9599 21.6837 24.5339 21.6837Z" fill="url(#paint33_linear_1_12183)"/>
<path d="M37.8665 40.1056H26.1338C24.897 40.1056 23.8944 39.103 23.8944 37.8662V26.1336C23.8944 24.8969 24.897 23.8943 26.1338 23.8943H37.8665C39.1032 23.8943 40.1058 24.8968 40.1058 26.1336V37.8663C40.1057 39.103 39.1032 40.1056 37.8665 40.1056Z" fill="url(#paint34_linear_1_12183)"/>
<path d="M28.699 29.5121H27.7299C27.1742 29.5121 26.7236 29.0616 26.7236 28.5058V27.5368C26.7236 26.981 27.1742 26.5305 27.7299 26.5305H28.699C29.2547 26.5305 29.7053 26.981 29.7053 27.5368V28.5058C29.7054 29.0616 29.2548 29.5121 28.699 29.5121Z" fill="url(#paint35_linear_1_12183)"/>
<path d="M32.5006 29.5121H31.5316C30.9758 29.5121 30.5253 29.0616 30.5253 28.5058V27.5368C30.5253 26.981 30.9758 26.5305 31.5316 26.5305H32.5006C33.0564 26.5305 33.5069 26.981 33.5069 27.5368V28.5058C33.507 29.0616 33.0565 29.5121 32.5006 29.5121Z" fill="url(#paint36_linear_1_12183)"/>
<path d="M36.2701 29.5121H35.3011C34.7453 29.5121 34.2948 29.0616 34.2948 28.5058V27.5368C34.2948 26.981 34.7453 26.5305 35.3011 26.5305H36.2701C36.8259 26.5305 37.2764 26.981 37.2764 27.5368V28.5058C37.2764 29.0616 36.8259 29.5121 36.2701 29.5121Z" fill="url(#paint37_linear_1_12183)"/>
<path d="M28.699 33.4908H27.7299C27.1742 33.4908 26.7236 33.0403 26.7236 32.4845V31.5155C26.7236 30.9597 27.1742 30.5092 27.7299 30.5092H28.699C29.2547 30.5092 29.7053 30.9597 29.7053 31.5155V32.4845C29.7054 33.0403 29.2548 33.4908 28.699 33.4908Z" fill="url(#paint38_linear_1_12183)"/>
<path d="M32.5006 33.4908H31.5316C30.9758 33.4908 30.5253 33.0403 30.5253 32.4845V31.5155C30.5253 30.9597 30.9758 30.5092 31.5316 30.5092H32.5006C33.0564 30.5092 33.5069 30.9597 33.5069 31.5155V32.4845C33.507 33.0403 33.0565 33.4908 32.5006 33.4908Z" fill="url(#paint39_linear_1_12183)"/>
<path d="M36.2701 33.4908H35.3011C34.7453 33.4908 34.2948 33.0403 34.2948 32.4845V31.5155C34.2948 30.9597 34.7453 30.5092 35.3011 30.5092H36.2701C36.8259 30.5092 37.2764 30.9597 37.2764 31.5155V32.4845C37.2764 33.0403 36.8259 33.4908 36.2701 33.4908Z" fill="url(#paint40_linear_1_12183)"/>
<path d="M28.699 37.4697H27.7299C27.1742 37.4697 26.7236 37.0191 26.7236 36.4633V35.4943C26.7236 34.9385 27.1742 34.488 27.7299 34.488H28.699C29.2547 34.488 29.7053 34.9385 29.7053 35.4943V36.4633C29.7054 37.0191 29.2548 37.4697 28.699 37.4697Z" fill="url(#paint41_linear_1_12183)"/>
<path d="M32.5006 37.4697H31.5316C30.9758 37.4697 30.5253 37.0191 30.5253 36.4633V35.4943C30.5253 34.9385 30.9758 34.488 31.5316 34.488H32.5006C33.0564 34.488 33.5069 34.9385 33.5069 35.4943V36.4633C33.507 37.0191 33.0565 37.4697 32.5006 37.4697Z" fill="url(#paint42_linear_1_12183)"/>
<path d="M36.2701 37.4697H35.3011C34.7453 37.4697 34.2948 37.0191 34.2948 36.4633V35.4943C34.2948 34.9385 34.7453 34.488 35.3011 34.488H36.2701C36.8259 34.488 37.2764 34.9385 37.2764 35.4943V36.4633C37.2764 37.0191 36.8259 37.4697 36.2701 37.4697Z" fill="url(#paint43_linear_1_12183)"/>
</g>
<defs>
<linearGradient id="paint0_linear_1_12183" x1="19.4754" y1="50.9317" x2="25.7469" y2="57.2032" gradientUnits="userSpaceOnUse">
<stop stop-color="#0B799D"/>
<stop offset="1" stop-color="#07485E"/>
</linearGradient>
<linearGradient id="paint1_linear_1_12183" x1="11.7072" y1="53.3712" x2="13.4824" y2="55.1463" gradientUnits="userSpaceOnUse">
<stop stop-color="#FFDA2D"/>
<stop offset="1" stop-color="#FDBF00"/>
</linearGradient>
<linearGradient id="paint2_linear_1_12183" x1="38.0685" y1="46.5569" x2="46.3386" y2="54.8269" gradientUnits="userSpaceOnUse">
<stop stop-color="#0B799D"/>
<stop offset="1" stop-color="#07485E"/>
</linearGradient>
<linearGradient id="paint3_linear_1_12183" x1="51.014" y1="53.3712" x2="52.7891" y2="55.1463" gradientUnits="userSpaceOnUse">
<stop stop-color="#FFDA2D"/>
<stop offset="1" stop-color="#FDBF00"/>
</linearGradient>
<linearGradient id="paint4_linear_1_12183" x1="31.0527" y1="51.1011" x2="32.9473" y2="51.1011" gradientUnits="userSpaceOnUse">
<stop stop-color="#0B799D"/>
<stop offset="1" stop-color="#07485E"/>
</linearGradient>
<linearGradient id="paint5_linear_1_12183" x1="19.4754" y1="13.0683" x2="25.7469" y2="6.7968" gradientUnits="userSpaceOnUse">
<stop stop-color="#0B799D"/>
<stop offset="1" stop-color="#07485E"/>
</linearGradient>
<linearGradient id="paint6_linear_1_12183" x1="11.7072" y1="9.34993" x2="13.4824" y2="11.1251" gradientUnits="userSpaceOnUse">
<stop stop-color="#FFDA2D"/>
<stop offset="1" stop-color="#FDBF00"/>
</linearGradient>
<linearGradient id="paint7_linear_1_12183" x1="38.0685" y1="17.4431" x2="46.3386" y2="9.17309" gradientUnits="userSpaceOnUse">
<stop stop-color="#0B799D"/>
<stop offset="1" stop-color="#07485E"/>
</linearGradient>
<linearGradient id="paint8_linear_1_12183" x1="51.014" y1="9.34993" x2="52.7891" y2="11.1251" gradientUnits="userSpaceOnUse">
<stop stop-color="#FFDA2D"/>
<stop offset="1" stop-color="#FDBF00"/>
</linearGradient>
<linearGradient id="paint9_linear_1_12183" x1="31.0527" y1="12.8989" x2="32.9473" y2="12.8989" gradientUnits="userSpaceOnUse">
<stop stop-color="#0B799D"/>
<stop offset="1" stop-color="#07485E"/>
</linearGradient>
<linearGradient id="paint10_linear_1_12183" x1="12.7314" y1="22.6166" x2="8.96423" y2="26.3837" gradientUnits="userSpaceOnUse">
<stop stop-color="#0B799D"/>
<stop offset="1" stop-color="#07485E"/>
</linearGradient>
<linearGradient id="paint11_linear_1_12183" x1="10.7075" y1="17.1584" x2="8.93235" y2="18.9335" gradientUnits="userSpaceOnUse">
<stop stop-color="#FFDA2D"/>
<stop offset="1" stop-color="#FDBF00"/>
</linearGradient>
<linearGradient id="paint12_linear_1_12183" x1="12.7314" y1="41.3835" x2="8.96423" y2="37.6163" gradientUnits="userSpaceOnUse">
<stop stop-color="#0B799D"/>
<stop offset="1" stop-color="#07485E"/>
</linearGradient>
<linearGradient id="paint13_linear_1_12183" x1="10.7075" y1="46.8416" x2="8.93235" y2="45.0666" gradientUnits="userSpaceOnUse">
<stop stop-color="#FFDA2D"/>
<stop offset="1" stop-color="#FDBF00"/>
</linearGradient>
<linearGradient id="paint14_linear_1_12183" x1="12.9775" y1="31.0527" x2="12.9775" y2="32.9473" gradientUnits="userSpaceOnUse">
<stop stop-color="#0B799D"/>
<stop offset="1" stop-color="#07485E"/>
</linearGradient>
<linearGradient id="paint15_linear_1_12183" x1="51.2688" y1="22.6166" x2="55.0359" y2="26.3837" gradientUnits="userSpaceOnUse">
<stop stop-color="#0B799D"/>
<stop offset="1" stop-color="#07485E"/>
</linearGradient>
<linearGradient id="paint16_linear_1_12183" x1="53.2927" y1="17.1584" x2="55.0678" y2="18.9335" gradientUnits="userSpaceOnUse">
<stop stop-color="#FFDA2D"/>
<stop offset="1" stop-color="#FDBF00"/>
</linearGradient>
<linearGradient id="paint17_linear_1_12183" x1="51.2688" y1="41.3835" x2="55.0359" y2="37.6163" gradientUnits="userSpaceOnUse">
<stop stop-color="#0B799D"/>
<stop offset="1" stop-color="#07485E"/>
</linearGradient>
<linearGradient id="paint18_linear_1_12183" x1="53.2927" y1="46.8416" x2="55.0678" y2="45.0666" gradientUnits="userSpaceOnUse">
<stop stop-color="#FFDA2D"/>
<stop offset="1" stop-color="#FDBF00"/>
</linearGradient>
<linearGradient id="paint19_linear_1_12183" x1="51.0226" y1="31.0527" x2="51.0226" y2="32.9473" gradientUnits="userSpaceOnUse">
<stop stop-color="#0B799D"/>
<stop offset="1" stop-color="#07485E"/>
</linearGradient>
<linearGradient id="paint20_linear_1_12183" x1="44.5599" y1="24.8922" x2="47.4794" y2="27.1166" gradientUnits="userSpaceOnUse">
<stop stop-color="#EDF5FF"/>
<stop offset="1" stop-color="#B5DBFF"/>
</linearGradient>
<linearGradient id="paint21_linear_1_12183" x1="44.5599" y1="31.4591" x2="47.4794" y2="33.6834" gradientUnits="userSpaceOnUse">
<stop stop-color="#EDF5FF"/>
<stop offset="1" stop-color="#B5DBFF"/>
</linearGradient>
<linearGradient id="paint22_linear_1_12183" x1="44.5599" y1="38.0259" x2="47.4794" y2="40.2502" gradientUnits="userSpaceOnUse">
<stop stop-color="#EDF5FF"/>
<stop offset="1" stop-color="#B5DBFF"/>
</linearGradient>
<linearGradient id="paint23_linear_1_12183" x1="18.0203" y1="24.8922" x2="20.9398" y2="27.1166" gradientUnits="userSpaceOnUse">
<stop stop-color="#EDF5FF"/>
<stop offset="1" stop-color="#B5DBFF"/>
</linearGradient>
<linearGradient id="paint24_linear_1_12183" x1="18.0203" y1="31.4591" x2="20.9398" y2="33.6834" gradientUnits="userSpaceOnUse">
<stop stop-color="#EDF5FF"/>
<stop offset="1" stop-color="#B5DBFF"/>
</linearGradient>
<linearGradient id="paint25_linear_1_12183" x1="18.0203" y1="38.0259" x2="20.9398" y2="40.2502" gradientUnits="userSpaceOnUse">
<stop stop-color="#EDF5FF"/>
<stop offset="1" stop-color="#B5DBFF"/>
</linearGradient>
<linearGradient id="paint26_linear_1_12183" x1="24.8923" y1="44.5598" x2="27.1167" y2="47.4792" gradientUnits="userSpaceOnUse">
<stop stop-color="#EDF5FF"/>
<stop offset="1" stop-color="#B5DBFF"/>
</linearGradient>
<linearGradient id="paint27_linear_1_12183" x1="31.4592" y1="44.5598" x2="33.6835" y2="47.4792" gradientUnits="userSpaceOnUse">
<stop stop-color="#EDF5FF"/>
<stop offset="1" stop-color="#B5DBFF"/>
</linearGradient>
<linearGradient id="paint28_linear_1_12183" x1="38.0259" y1="44.5598" x2="40.2502" y2="47.4792" gradientUnits="userSpaceOnUse">
<stop stop-color="#EDF5FF"/>
<stop offset="1" stop-color="#B5DBFF"/>
</linearGradient>
<linearGradient id="paint29_linear_1_12183" x1="24.8923" y1="18.0202" x2="27.1167" y2="20.9397" gradientUnits="userSpaceOnUse">
<stop stop-color="#EDF5FF"/>
<stop offset="1" stop-color="#B5DBFF"/>
</linearGradient>
<linearGradient id="paint30_linear_1_12183" x1="31.4592" y1="18.0202" x2="33.6835" y2="20.9397" gradientUnits="userSpaceOnUse">
<stop stop-color="#EDF5FF"/>
<stop offset="1" stop-color="#B5DBFF"/>
</linearGradient>
<linearGradient id="paint31_linear_1_12183" x1="38.0259" y1="18.0202" x2="40.2502" y2="20.9397" gradientUnits="userSpaceOnUse">
<stop stop-color="#EDF5FF"/>
<stop offset="1" stop-color="#B5DBFF"/>
</linearGradient>
<linearGradient id="paint32_linear_1_12183" x1="25.6139" y1="25.6137" x2="45.3137" y2="45.3135" gradientUnits="userSpaceOnUse">
<stop stop-color="#0B799D"/>
<stop offset="1" stop-color="#07485E"/>
</linearGradient>
<linearGradient id="paint33_linear_1_12183" x1="37.0643" y1="37.064" x2="21.4431" y2="21.4429" gradientUnits="userSpaceOnUse">
<stop stop-color="#0B799D"/>
<stop offset="1" stop-color="#07485E"/>
</linearGradient>
<linearGradient id="paint34_linear_1_12183" x1="28.4794" y1="28.4793" x2="37.1877" y2="37.1876" gradientUnits="userSpaceOnUse">
<stop stop-color="#B9DD39"/>
<stop offset="1" stop-color="#90CC1C"/>
</linearGradient>
<linearGradient id="paint35_linear_1_12183" x1="27.8832" y1="27.7689" x2="29.2455" y2="28.8068" gradientUnits="userSpaceOnUse">
<stop stop-color="#FFDA2D"/>
<stop offset="1" stop-color="#FDBF00"/>
</linearGradient>
<linearGradient id="paint36_linear_1_12183" x1="31.6848" y1="27.7689" x2="33.0472" y2="28.8068" gradientUnits="userSpaceOnUse">
<stop stop-color="#FFDA2D"/>
<stop offset="1" stop-color="#FDBF00"/>
</linearGradient>
<linearGradient id="paint37_linear_1_12183" x1="35.4543" y1="27.7689" x2="36.8166" y2="28.8068" gradientUnits="userSpaceOnUse">
<stop stop-color="#FFDA2D"/>
<stop offset="1" stop-color="#FDBF00"/>
</linearGradient>
<linearGradient id="paint38_linear_1_12183" x1="27.8832" y1="31.7476" x2="29.2455" y2="32.7855" gradientUnits="userSpaceOnUse">
<stop stop-color="#FFDA2D"/>
<stop offset="1" stop-color="#FDBF00"/>
</linearGradient>
<linearGradient id="paint39_linear_1_12183" x1="31.6848" y1="31.7476" x2="33.0472" y2="32.7855" gradientUnits="userSpaceOnUse">
<stop stop-color="#FFDA2D"/>
<stop offset="1" stop-color="#FDBF00"/>
</linearGradient>
<linearGradient id="paint40_linear_1_12183" x1="35.4543" y1="31.7476" x2="36.8166" y2="32.7855" gradientUnits="userSpaceOnUse">
<stop stop-color="#FFDA2D"/>
<stop offset="1" stop-color="#FDBF00"/>
</linearGradient>
<linearGradient id="paint41_linear_1_12183" x1="27.8832" y1="35.7264" x2="29.2455" y2="36.7643" gradientUnits="userSpaceOnUse">
<stop stop-color="#FFDA2D"/>
<stop offset="1" stop-color="#FDBF00"/>
</linearGradient>
<linearGradient id="paint42_linear_1_12183" x1="31.6848" y1="35.7264" x2="33.0472" y2="36.7643" gradientUnits="userSpaceOnUse">
<stop stop-color="#FFDA2D"/>
<stop offset="1" stop-color="#FDBF00"/>
</linearGradient>
<linearGradient id="paint43_linear_1_12183" x1="35.4543" y1="35.7264" x2="36.8166" y2="36.7643" gradientUnits="userSpaceOnUse">
<stop stop-color="#FFDA2D"/>
<stop offset="1" stop-color="#FDBF00"/>
</linearGradient>
<clipPath id="clip0_1_12183">
<rect width="48" height="48" fill="white" transform="translate(8 8)"/>
</clipPath>
</defs>
</svg>
